<svg width="225" height="162" viewBox="0 0 225 162" fill="none" xmlns="http://www.w3.org/2000/svg">
<path d="M31.5 115.2H28.8H28.7001C28.7001 115.2 28.5001 115 28.1001 114.6C27.9001 114.4 27.7 114.2 27.5 114L27.3 113.8L48.1001 103.1C48.1001 102.9 48.1001 102.7 48.1001 102.4C48.1001 101.8 48.2001 101.3 48.4001 100.8V97.6H53.3L68.9001 78.8L70.8 79.3L71.6001 78.4V77.9C71.4001 77.4 71.3 76.8 71.3 76.3C71.3 75.7 71.4001 75.2 71.6001 74.7V71.5H76.6001C79.0001 71.7 80.9001 73.8 80.9001 76.3C80.9001 76.9 80.8001 77.5 80.6001 78.1L92.1001 88.4H96C96.1 88.4 96.3001 88.4 96.4001 88.4H96.5H96.7001C97.0001 88.4 97.2 88.5 97.5 88.5L111.9 70.1H114V69C113.8 68.5 113.7 67.9 113.7 67.4C113.7 66.8 113.8 66.3 114 65.8V62.6H118.5C119.1 62.6 119.7 62.7 120.3 62.9C120.9 63.1 121.4 63.5 121.8 63.9L136.3 58.5V58.4C136.3 56.8 137.1 55.3 138.5 54.4L138.6 54.2L151.5 25.6H152.6V24.6H156.5C159.1 24.6 161.2 26.7 161.3 29.2L173.7 37.7C173.8 37.6 173.9 37.6 174 37.5C174.4 37.3 174.9 37.1 175.4 37C175.7 37 175.9 36.9 176.2 36.9C176.9 36.9 177.5 37 178.1 37.3L198.1 18.9L199.5 19.6L201.3 18.1L191.1 6.5L219.4 0.9L219.7 0H224.4L224.3 0.299999L213.5 32H208.8L210.1 28.3L203.3 20.6L201 22.6L180.7 40.4C180.9 40.9 180.9 41.4 180.9 41.9C180.9 44.5 178.8 46.7 176.1 46.7H171.6L171.8 46.4L172.5 45.1C172.2 44.7 171.9 44.3 171.7 43.9C171.6 43.7 171.5 43.5 171.5 43.3C171.4 42.9 171.3 42.4 171.3 41.9C171.3 41.4 171.4 40.9 171.5 40.4L160 32.5C159.1 33.6 157.7 34.3 156.3 34.3H154.9L144.4 55.2C145.3 56.1 145.7 57.3 145.7 58.5C145.7 59.8 145.2 61 144.3 61.9C143.4 62.8 142.2 63.3 140.9 63.3H136.4L136.5 61.9L123.1 66.9C123.1 67.1 123.1 67.3 123.1 67.5C123.1 70.1 121 72.3 118.3 72.3H116.6L100.6 91.5C100.8 92.1 100.9 92.6 100.9 93.2C100.9 95.7 99.0001 97.7 96.6001 98H96.4001H91.6001V94.8C91.4001 94.3 91.3 93.7 91.3 93.2C91.3 92.9 91.3001 92.5 91.4001 92.2L89.8 90.7L89.1001 91.1L89 91C89 91 88.7001 90.7 88.2001 90.3C83.1001 85.8 79.5 82.6 77.5 80.8C77.2 80.9 76.8 81 76.5 81H76.2001C76.0001 81 75.9001 81 75.7001 81H73.3L56.9001 100C57.3001 100.7 57.5 101.5 57.5 102.4C57.5 104.9 55.6001 106.9 53.2001 107.2H53H48.2001V106.5L31.5 115.2ZM29 114.8H31.5L48.8 105.9V106.8H53.1001H53.2001C55.5001 106.7 57.3 104.7 57.3 102.4C57.3 101.6 57.1001 100.8 56.7001 100.1L56.6001 100L73.3 80.7H75.9001C76.1001 80.7 76.2 80.7 76.3 80.7H76.4001C76.8001 80.7 77.2001 80.6 77.6001 80.5H77.7001L77.8 80.6C79.2 81.8 82.1001 84.5 88.6001 90.2C88.9001 90.5 89.2 90.7 89.3 90.8L90 90.4L92 92.2L91.9001 92.4C91.8001 92.7 91.8 93 91.8 93.3C91.8 93.8 91.9001 94.3 92.1001 94.8V97.6H96.4001H96.5C98.8 97.5 100.6 95.5 100.6 93.2C100.6 92.6 100.5 92 100.3 91.5V91.4L116.7 71.9H118.6C121 71.9 123 69.9 123 67.5C123 67.3 123 67 122.9 66.8V66.6L137.2 61.2L137.1 62.8H141.2C142.4 62.8 143.5 62.3 144.3 61.5C145.1 60.7 145.6 59.6 145.6 58.4C145.6 57.2 145.1 56.1 144.3 55.3L144.2 55.2L144.3 55.1L154.9 33.9H156.6C158 33.9 159.3 33.2 160.1 32.1L160.2 31.9L172.2 40.1L172.1 40.2C171.9 40.7 171.8 41.2 171.8 41.7C171.8 42.1 171.9 42.5 172 43C172.1 43.2 172.1 43.4 172.2 43.5C172.4 43.9 172.7 44.3 173 44.7L173.1 44.8L172.4 46.1H176.2C178.6 46.1 180.6 44.1 180.6 41.7C180.6 41.2 180.5 40.7 180.4 40.2V40.1L183.8 37.1L200.9 22.1L203.5 19.8L210.7 28L209.5 31.4H213.4L224 0.200001H220.1L219.8 1.1L191.9 6.6L201.9 18L199.7 20L198.3 19.3L178.3 37.7L178.2 37.6C177.6 37.3 177 37.2 176.3 37.2C176 37.2 175.8 37.2 175.5 37.3C175 37.4 174.6 37.5 174.2 37.7C174.1 37.8 173.9 37.9 173.8 37.9L173.7 38L160.7 29.5V29.4C160.7 27 158.7 25.1 156.3 25.1H152.8V26.1H151.6L138.7 54.8H138.6C137.3 55.6 136.6 57 136.6 58.5C136.6 58.6 136.6 58.6 136.6 58.7V58.8L121.6 64.4L121.5 64.3C121.1 63.9 120.6 63.5 120 63.3C119.5 63.1 118.9 63 118.4 63H114.3V65.8C114.1 66.3 114 66.8 114 67.3C114 67.8 114.1 68.3 114.3 68.8V70.4H112L111.5 71.1L97.5 88.9H97.4001C97.1001 88.8 96.7001 88.7 96.4001 88.7H96.3C96.2 88.7 96.0001 88.7 95.9001 88.7H91.9001L91.8 88.6L80 78L80.1001 77.9C80.3001 77.3 80.5 76.8 80.5 76.2C80.5 73.9 78.7001 72 76.4001 71.8H76.2001H72V74.6C71.8 75.1 71.7001 75.6 71.7001 76.1C71.7001 76.6 71.8 77.1 72 77.6V78.3L70.9001 79.5L69 79L68.7001 79.4L53.5 97.8H53.3H53.2001H53.1001H48.8V100.6C48.6 101.1 48.5 101.6 48.5 102.1C48.5 102.3 48.5001 102.6 48.6001 102.8V102.9L28 113.5C28.1 113.6 28.3001 113.8 28.4001 113.9C28.7001 114.6 28.9 114.7 29 114.8Z" fill="#C5B2FE"/>
<path d="M140.9 63.3H136.4L136.5 61.9L135.8 62.2L135.7 60.3L139.7 55.1H144.6L144.4 55.3C145.2 56.2 145.7 57.3 145.7 58.6C145.7 59.9 145.2 61.1 144.3 62C143.4 62.8 142.2 63.3 140.9 63.3ZM136.8 62.9H140.9C142.1 62.9 143.2 62.4 144 61.6C144.8 60.8 145.3 59.7 145.3 58.5C145.3 57.3 144.9 56.2 144 55.4H139.9L136.1 60.4L136.2 61.6L137 61.3L136.8 62.9Z" fill="#C5B2FE"/>
<path d="M202.5 17.1L201.3 18.2L199.3 20L198.9 20.4L181.3 35.8L176 40.4L172.2 43.7L172.1 43.5L171.6 43.2L167.4 40.3L155.7 32.3L152.5 30.1L139.9 55.3L137.7 59.7L136.1 60.3L133.1 61.4L118.7 66.8L116 67.8L114.2 69.9L113.8 70.4L112.6 71.8L96.1001 91.4L92 96.3L91.9001 96.2L87.4001 92.2L74.9001 80.9L74.2001 80.3L71.8 78.2L71.6001 78L70.3 79.5L69.5 80.4L52.5 100.1L49.5 103.6L49.3 103.7L45.4001 105.7L28.3 114.5C28.1 114.3 27.9001 114.1 27.7001 113.9C27.3001 113.5 26.8 113 26.3 112.4L44.1001 103.2L47.7001 101.3L48.6001 100.3L50.4001 98.2L50.7001 97.8L67.6001 78.2L71.3 73.9L71.7001 74.3L75.9001 78.1L88.8 89.7L89.7001 90.5L91.6001 92.2L94.1001 89.2L94.7001 88.5L110.3 69.9L114.1 65.4L114.2 65.3L117.3 64.1L120 63.1L132 58.6L135.6 57.3L137.3 53.9L151.4 25.8L169.1 38.1L172.1 40.1L174.4 38.1L175.3 37.3L178.8 34.3L197.2 18.2L199.6 16.1L200.8 15L202.5 17.1Z" fill="#C5B2FE"/>
<path d="M208.9 31.8L219.7 0.200001L186.9 6.7L208.9 31.8Z" fill="#C5B2FE"/>
<path d="M53.2 102.4C53.2 104.9 51.1 107 48.6 107C46.1 107 44 104.9 44 102.4C44 99.9 46.1 97.8 48.6 97.8C51.1 97.8 53.2 99.9 53.2 102.4Z" fill="#C5B2FE"/>
<path d="M76.3001 76.3C76.3001 78.8 74.2001 80.9 71.7001 80.9C69.2001 80.9 67.1001 78.8 67.1001 76.3C67.1001 73.8 69.2001 71.7 71.7001 71.7C74.3001 71.7 76.3001 73.8 76.3001 76.3Z" fill="#C5B2FE"/>
<path d="M96.3999 93.2C96.3999 95.7 94.2999 97.8 91.7999 97.8C89.2999 97.8 87.2 95.7 87.2 93.2C87.2 90.7 89.2999 88.6 91.7999 88.6C94.2999 88.6 96.3999 90.7 96.3999 93.2Z" fill="#C5B2FE"/>
<path d="M118.7 67.5C118.7 70 116.6 72.1 114.1 72.1C111.6 72.1 109.5 70 109.5 67.5C109.5 65 111.6 62.9 114.1 62.9C116.6 62.9 118.7 65 118.7 67.5Z" fill="#C5B2FE"/>
<path d="M141.2 58.5C141.2 61 139.1 63.1 136.6 63.1C134.1 63.1 132 61 132 58.5C132 56 134.1 53.9 136.6 53.9C139.2 53.9 141.2 56 141.2 58.5Z" fill="#C5B2FE"/>
<path d="M176.3 41.8C176.3 44.3 174.2 46.4 171.7 46.4C169.2 46.4 167.1 44.3 167.1 41.8C167.1 39.3 169.2 37.2 171.7 37.2C174.2 37.3 176.3 39.3 176.3 41.8Z" fill="#C5B2FE"/>
<path d="M157.1 29.5C157.1 32 155 34.1 152.5 34.1C150 34.1 147.9 32 147.9 29.5C147.9 27 150 24.9 152.5 24.9C155 24.9 157.1 27 157.1 29.5Z" fill="#C5B2FE"/>
<path d="M136.5 94.6L80.3999 98.4V19L136.5 27.6V94.6Z" fill="#7E2D98"/>
<path d="M82.7998 19V98.4L84.7998 98.3L87.8998 98.1L106.5 96.8L121 95.8H121.9L125.4 95.5L130.7 95.2H130.9L133.8 95L138.1 94.7L138.9 94.6V27.6L82.7998 19Z" fill="white"/>
<path d="M129.2 58.7L128.4 60.6C128.2 60.5 127.9 60.4 127.6 60.4C126.6 60.3 125.7 61 125.5 61.9L123.4 61.3C123.6 60.5 123.9 59.8 124.5 59.3C125.9 58.2 127.7 58 129.2 58.7Z" fill="#4619D9"/>
<path d="M127.7 64.7C128.9 64.8 129.8 63.9 129.8 62.7C129.8 62.1 129.5 61.5 129.1 61.1L130.5 59.7L130.6 59.8C132.2 61.6 132.2 64.3 130.6 65.8C129 67.4 126.3 67.2 124.7 65.4C124.4 65 124.1 64.6 123.9 64.2L125.8 63.4C126.1 64.1 126.9 64.7 127.7 64.7Z" fill="#FF8D00"/>
<path d="M130.5 59.7L129.1 61.1C128.9 60.9 128.7 60.7 128.4 60.6L129.2 58.7C129.7 59 130.1 59.3 130.5 59.7Z" fill="#FF1D52"/>
<path d="M125.6 62C125.6 62.1 125.6 62.3 125.6 62.5C125.6 62.8 125.7 63.2 125.8 63.5L123.9 64.3C123.5 63.4 123.4 62.4 123.6 61.5L125.6 62Z" fill="#00E18E"/>
<path d="M109 62.5C109.7 63.3 110.8 63.4 111.6 62.9L112.7 64.7C112.1 65.1 111.3 65.3 110.5 65.3C108.8 65.3 107.3 64.1 106.6 62.6L108.5 61.8C108.7 62.1 108.8 62.3 109 62.5Z" fill="#FF8D00"/>
<path d="M110.5 56.8C112.8 56.9 114.7 58.9 114.7 61.2C114.7 61.7 114.6 62.1 114.5 62.6L112.5 61.9C112.7 61.2 112.6 60.3 112 59.7C111.2 58.8 109.9 58.8 109 59.6C108.6 60 108.4 60.6 108.4 61.2H106.3V61.1C106.3 58.5 108.2 56.7 110.5 56.8Z" fill="#4619D9"/>
<path d="M112.5 61.8L114.5 62.5C114.2 63.4 113.6 64.2 112.8 64.7L111.7 62.9C111.8 62.8 111.9 62.7 112 62.6C112.2 62.4 112.4 62.1 112.5 61.8Z" fill="#FF1D52"/>
<path d="M108.6 61.9L106.7 62.7C106.5 62.2 106.4 61.7 106.4 61.1H108.5C108.4 61.3 108.5 61.6 108.6 61.9Z" fill="#00E18E"/>
<path d="M92.5999 55.8C93.0999 55.8 93.4999 55.9 93.8999 56.1L93.1999 58.1C92.4999 57.8 91.5999 57.9 90.9999 58.5C90.1999 59.3 90.1999 60.7 90.9999 61.5C91.3999 62 91.9999 62.2 92.5999 62.2L92.6999 64.3H92.5999C90.2999 64.2 88.3999 62.2 88.3999 59.8C88.3999 57.5 90.2999 55.7 92.5999 55.8Z" fill="#4619D9"/>
<path d="M94.4 59.1L96.1 58.1C96.5 58.8 96.8 59.6 96.8 60.4C96.8 62.2 95.8 63.6 94.3 64.2L93.5 62.2C93.7 62.1 94 62 94.2 61.8C94.8 61 94.9 59.9 94.4 59.1Z" fill="#FF8D00"/>
<path d="M96.0998 58L94.3998 59C94.2998 58.9 94.1998 58.7 94.0998 58.6C93.8998 58.3 93.5998 58.2 93.2998 58L93.9998 56C94.8998 56.5 95.5998 57.2 96.0998 58Z" fill="#FF1D52"/>
<path d="M94.2999 64.1C93.7999 64.3 93.2999 64.4 92.7999 64.4L92.7 62.3C93 62.3 93.1999 62.3 93.4999 62.2L94.2999 64.1Z" fill="#00E18E"/>
<path d="M128.6 42.9L128.3 53.4L123.7 53L123.9 42.3L128.6 42.9Z" fill="#FF1D52"/>
<path d="M120.7 37.8L120.4 52.7L115.9 52.3L116.2 37.3L120.7 37.8Z" fill="#4619D9"/>
<path d="M113 39.4L112.8 52L108.5 51.6L108.7 38.9L113 39.4Z" fill="#FF1D52"/>
<path d="M105.7 31.8L105.6 51.4L101.5 51L101.6 31.3L105.7 31.8Z" fill="#4619D9"/>
<path d="M98.5999 50.7L94.7 50.4V26.2L98.7 26.8L98.5999 50.7Z" fill="#FF1D52"/>
<path d="M82.7999 19H80.3999V98.4H82.7999V19Z" fill="#9872FF"/>
<path d="M82.7998 19V22.3L138.9 30.2V27.6L82.7998 19Z" fill="#192344"/>
<path d="M82.7999 19H80.3999V22.3H82.7999V19Z" fill="#0B1028"/>
<path d="M86.5999 20.2L84.9 21.7C84.8 21.8 84.8 21.9 84.9 21.9C85 22 85.0999 22 85.0999 21.9L86.7999 20.4C86.8999 20.3 86.8999 20.2 86.7999 20.2C86.6999 20.2 86.5999 20.2 86.5999 20.2Z" fill="white"/>
<path d="M85.0999 20C84.9999 19.9 84.9 19.9 84.9 20C84.8 20.1 84.8 20.2 84.9 20.2L86.5999 22.2C86.6999 22.3 86.7999 22.3 86.7999 22.2C86.8999 22.1 86.8999 22 86.7999 22L85.0999 20Z" fill="white"/>
<path d="M88.0999 21.4C88.0999 22.1 88.5998 22.7 89.2998 22.7C89.8998 22.8 90.3999 22.3 90.3999 21.7C90.3999 21 89.8999 20.4 89.1999 20.4C88.5999 20.3 87.9999 20.8 88.0999 21.4ZM88.2998 21.5C88.2998 21 88.6999 20.6 89.1999 20.7C89.6999 20.8 90.0999 21.2 90.0999 21.7C90.0999 22.2 89.6999 22.6 89.1999 22.5C88.6999 22.4 88.2998 22 88.2998 21.5Z" fill="white"/>
<path d="M93.5999 23L91.4999 22.7C91.3999 22.7 91.3999 22.7 91.3999 22.8C91.3999 22.9 91.4999 22.9 91.4999 23L93.5999 23.3C93.6999 23.3 93.6999 23.3 93.6999 23.2C93.7999 23 93.6999 23 93.5999 23Z" fill="white"/>
<path d="M87.8999 79.9V80.5C87.9999 80.5 88.1999 80.6 88.2999 80.6L107 80.5C106.9 80.3 106.7 80.2 106.6 80L88.3999 80.1C88.1999 80 87.9999 80 87.8999 79.9ZM86.5999 70.1V79C86.5999 79.7 87.0999 80.3 87.7999 80.5C87.8999 80.5 88.0999 80.6 88.1999 80.6L106.9 80.5L119 80.4H119.8H124.2L134 80.3C134 80.3 134 80.3 134.1 80.3C134.4 80.3 134.6 80.2 134.8 79.9C135 79.7 135.1 79.3 135.1 79V71.9C135.1 71.2 134.6 70.6 134 70.6L127.8 70.3L120.2 70H119.5L105.6 69.4L101.6 69.2L88.2999 68.6C88.0999 68.6 87.9999 68.6 87.8999 68.6C87.5999 68.7 87.2999 68.8 87.0999 69C86.7999 69.3 86.5999 69.7 86.5999 70.1ZM87.1999 70.1C87.1999 69.9 87.2998 69.6 87.4998 69.4C87.5998 69.3 87.6999 69.2 87.8999 69.2C87.9999 69.2 88.0999 69.1 88.1999 69.1H88.2999L101.7 69.7L105.7 69.9L119.4 70.5H119.9H120.1L128.1 70.8L134 71C134.4 71 134.7 71.4 134.7 71.8V78.9C134.7 79.1 134.6 79.3 134.5 79.5C134.4 79.6 134.2 79.7 134 79.7H123.5H119.7H118.9L106.4 79.8L88.1999 79.9C87.9999 79.9 87.8999 79.9 87.6999 79.8C87.2999 79.6 86.9998 79.3 86.9998 78.9L87.1999 70.1ZM87.8999 79.9V80.5C87.9999 80.5 88.1999 80.6 88.2999 80.6L107 80.5C106.9 80.3 106.7 80.2 106.6 80L88.3999 80.1C88.1999 80 87.9999 80 87.8999 79.9ZM87.8999 79.9V80.5C87.9999 80.5 88.1999 80.6 88.2999 80.6L107 80.5C106.9 80.3 106.7 80.2 106.6 80L88.3999 80.1C88.1999 80 87.9999 80 87.8999 79.9Z" fill="#9872FF"/>
<path fill-rule="evenodd" clip-rule="evenodd" d="M100.7 72L93.3999 71.6V70.3L100.7 70.7V72Z" fill="#9872FF"/>
<path fill-rule="evenodd" clip-rule="evenodd" d="M104.2 74.3L93.3999 73.9V72.6L104.2 73V74.3Z" fill="#9872FF"/>
<path fill-rule="evenodd" clip-rule="evenodd" d="M112.5 72.5L103.3 72.1V70.8L112.5 71.3V72.5Z" fill="#9872FF"/>
<path fill-rule="evenodd" clip-rule="evenodd" d="M118.3 72.8L113.8 72.6V71.4L118.3 71.6V72.8Z" fill="#9872FF"/>
<path fill-rule="evenodd" clip-rule="evenodd" d="M124.8 73.1L119.7 72.8V71.7L124.8 72V73.1Z" fill="#9872FF"/>
<path fill-rule="evenodd" clip-rule="evenodd" d="M122.2 74.8L112.7 74.5V73.4L122.2 73.8V74.8Z" fill="#9872FF"/>
<path fill-rule="evenodd" clip-rule="evenodd" d="M100.7 75.1V76.3L93.3999 76.2V74.9L100.7 75.1Z" fill="#9872FF"/>
<path fill-rule="evenodd" clip-rule="evenodd" d="M113.7 78.6L93.3999 78.5V77.2L113.7 77.5V78.6Z" fill="#9872FF"/>
<path fill-rule="evenodd" clip-rule="evenodd" d="M115 76.6L103.3 76.4V75.2L115 75.5V76.6Z" fill="#9872FF"/>
<path fill-rule="evenodd" clip-rule="evenodd" d="M122.2 76.8L116.7 76.6V75.5L122.2 75.7V76.8Z" fill="#9872FF"/>
<path fill-rule="evenodd" clip-rule="evenodd" d="M130.1 75.9V76.9L124 76.8V75.7L130.1 75.9Z" fill="#9872FF"/>
<path fill-rule="evenodd" clip-rule="evenodd" d="M124.8 77.6V78.7L115.4 78.6V77.5L124.8 77.6Z" fill="#9872FF"/>
<path fill-rule="evenodd" clip-rule="evenodd" d="M110.7 74.5L105.9 74.3V73.1L110.7 73.3V74.5Z" fill="#9872FF"/>
<path d="M86.7 85.2V94.1C86.7 94.8 87.1999 95.4 87.8999 95.5C87.9999 95.5 88.1999 95.5 88.3999 95.5L107 94.2L121 93.3L121.8 93.2L125.9 92.9L128.2 92.7L134.1 92.3C134.4 92.3 134.7 92.1 134.9 91.9C135.1 91.6 135.2 91.3 135.2 91V86.4V83.9C135.2 83.2 134.7 82.7 134.1 82.7L127.6 82.8L119.9 82.9H119.1L109.6 83.1L88.2999 83.5C88.0999 83.5 87.9999 83.5 87.7999 83.6C87.4999 83.7 87.2999 83.8 87.0999 84C86.7999 84.4 86.7 84.8 86.7 85.2ZM87.2 85.2C87.2 84.9 87.2999 84.7 87.4999 84.5C87.5999 84.4 87.6999 84.3 87.8999 84.2C87.9999 84.1 88.1999 84.1 88.2999 84.1C88.2999 84.1 88.2999 84.1 88.3999 84.1L110.3 83.7L119.2 83.5H120L128 83.3L134.2 83.2C134.6 83.2 134.9 83.5 134.9 84V87.1V91.1C134.9 91.3 134.8 91.5 134.7 91.7C134.6 91.8 134.4 91.9 134.2 91.9L127.8 92.3L126 92.4L121.8 92.7L120.3 92.8L107 93.7L88.2999 94.9C88.0999 94.9 87.9999 94.9 87.7999 94.8C87.3999 94.7 87.2 94.3 87.2 93.9V85.2Z" fill="#9872FF"/>
<path fill-rule="evenodd" clip-rule="evenodd" d="M131.4 86.4V87.4L126.7 87.6V86.5L131.4 86.4Z" fill="#9872FF"/>
<path fill-rule="evenodd" clip-rule="evenodd" d="M124.8 85.9L110.9 86.3V85.2L124.8 84.9V85.9Z" fill="#9872FF"/>
<path fill-rule="evenodd" clip-rule="evenodd" d="M106.7 86.4L96.0999 86.7V85.5L106.7 85.2V86.4Z" fill="#9872FF"/>
<path fill-rule="evenodd" clip-rule="evenodd" d="M108.7 88.2L97.2 88.7V87.5L108.7 87.1V88.2Z" fill="#9872FF"/>
<path fill-rule="evenodd" clip-rule="evenodd" d="M105.3 90.3L97.2 90.8V89.6L105.3 89.2V90.3Z" fill="#9872FF"/>
<path fill-rule="evenodd" clip-rule="evenodd" d="M118.6 87.8L110.9 88.1V87L118.6 86.7V87.8Z" fill="#9872FF"/>
<path fill-rule="evenodd" clip-rule="evenodd" d="M120.5 89.5L107.1 90.2V89.1L120.5 88.5V89.5Z" fill="#9872FF"/>
<path fill-rule="evenodd" clip-rule="evenodd" d="M125 89.3L121.7 89.5V88.4L125 88.3V89.3Z" fill="#9872FF"/>
<path fill-rule="evenodd" clip-rule="evenodd" d="M110.8 91.9L103.6 92.4V91.3L110.8 90.9V91.9Z" fill="#9872FF"/>
<path fill-rule="evenodd" clip-rule="evenodd" d="M123.6 91.1L111.9 91.9V90.8L123.6 90.1V91.1Z" fill="#9872FF"/>
<path fill-rule="evenodd" clip-rule="evenodd" d="M128.2 90.9L124.8 91.1V90.1L128.2 89.9V90.9Z" fill="#9872FF"/>
<path d="M185.5 118.3L196.1 160.4H197.1L186.5 118.3H185.5Z" fill="#0B1028"/>
<path d="M198.1 118.3L208.8 160.4H209.7L199.1 118.3H198.1Z" fill="#0B1028"/>
<path d="M187.5 124L187.6 124.8H200.2L200 124H187.5Z" fill="#0B1028"/>
<path d="M189.3 131L189.4 131.9H201.9L201.8 131H189.3Z" fill="#0B1028"/>
<path d="M191.1 138.1L191.2 138.9H203.7L203.6 138.1H191.1Z" fill="#0B1028"/>
<path d="M192.9 145.1L193 146H205.5L205.4 145.1H192.9Z" fill="#0B1028"/>
<path d="M194.6 152.2L194.8 153.1H207.3L207.1 152.2H194.6Z" fill="#0B1028"/>
<path d="M165.1 160.4H166L176.7 118.3H175.7L165.1 160.4Z" fill="#192344"/>
<path d="M177.7 160.4H178.7L189.3 118.3H188.3L177.7 160.4Z" fill="#192344"/>
<path d="M167.4 153.5H179.9L180 152.7H167.5L167.4 153.5Z" fill="#192344"/>
<path d="M169.2 146.5H181.7L181.8 145.6H169.3L169.2 146.5Z" fill="#192344"/>
<path d="M171 139.4H183.5L183.6 138.6H171.1L171 139.4Z" fill="#192344"/>
<path d="M172.7 132.4H185.2L185.4 131.5H172.9L172.7 132.4Z" fill="#192344"/>
<path d="M174.5 125.3H187L187.1 124.4H174.6L174.5 125.3Z" fill="#192344"/>
<path d="M201.9 116.2H190.3V118.3H201.9V116.2Z" fill="#0B1028"/>
<path d="M190.3 116.2H171.9V118.3H190.3V116.2Z" fill="#192344"/>
<path d="M153.4 76.8C153.3 76.6 153.3 76.3 153.1 76.5C152.9 76.6 153 77.4 153.1 77.5C153.5 77.8 153.6 77.6 154 77.9C153.7 77.5 153.5 77.1 153.4 76.8Z" fill="#FF9873"/>
<path d="M166.7 84.1C166.6 84 166.5 83.9 166.4 83.8C164.4 82.6 156.1 79.5 154.1 78C153.7 78.7 153.4 79.3 153 79.7C156.2 82.2 165 87.6 166.3 86.7C167.5 85.7 167.2 84.7 166.7 84.1Z" fill="#FF3B79"/>
<path d="M151 77.8C151.8 78.6 152.8 79.4 153.1 79.7C153.4 79.4 154.3 78.1 154.3 78.1C153.9 77.8 153.6 77.4 153.3 77.1C152.9 76.7 151.9 76 151.8 75.9C151.6 75.8 151.1 75.4 150.9 75.3C150.7 75.2 150.5 75.2 150.3 75.4C150.2 75.5 150.2 75.7 150.7 76.1C151.3 76.5 151.6 76.8 151.6 76.8C151.6 76.8 151.2 76.9 151.3 77.2C151.3 77.2 150.9 77.2 151 77.6C150.9 77.5 150.7 77.6 151 77.8Z" fill="#FF9873"/>
<path d="M178.6 80.2C176.4 80.4 169.8 82.7 166.4 83.2C162.2 83.8 164.2 86.5 165.5 86.7C169 87.3 178.8 87.2 179.3 85.4C179.5 84.7 179 80.1 178.6 80.2Z" fill="#FF3B79"/>
<path d="M179.1 79.9C179 79.8 178.8 79.7 178.6 79.7C177.5 79.8 175.2 80.4 172.9 81.1C170.5 81.8 165.8 82.8 165.6 82.9C164.7 82.5 155.6 78.6 154.5 77.7L152.8 80.1C155.6 82.3 162.8 86.8 165.5 87.2C168.3 87.7 179.2 88 179.8 85.6C180 84.7 179.6 80.5 179.1 79.9Z" fill="#F47500"/>
<path d="M150.5 134.9C150.7 134.5 151 133.7 151 133.7L153.2 134.3C153.2 134.3 153.3 134.8 153.3 135.4C153.3 136 154.1 136.8 153.5 137.5C153.3 137.7 152.1 137.6 151.5 137.6C151 137.6 149.4 137.7 148.6 137.7C147.7 137.7 146.5 137.4 146.5 136.9C146.4 135.8 150.1 135.6 150.5 134.9Z" fill="#001A37"/>
<path d="M151 133.6L153.3 133.7C153.3 133.7 153.3 134.8 153.3 135.3C153.3 135.3 151.1 135.6 150.8 135.3C150.4 135 150.6 134.8 150.6 134.8C150.9 134.3 151 133.6 151 133.6Z" fill="#FF9873"/>
<path d="M165.2 112.3C159.2 124.5 153.5 135.2 153.5 135.2C152.4 135 151.2 134.7 150.7 134C150.7 134 153.9 122.9 158.2 108C159.8 101.9 169.1 104.3 165.2 112.3Z" fill="#00E18E"/>
<path d="M159.6 112.1C167.7 108.5 187.8 103.3 191.3 103.8C195.1 104.3 195.5 113.3 188.9 115.3C181.4 117.7 170.4 120 161 118.6C157.5 118.1 156.2 113.7 159.6 112.1Z" fill="#00C675"/>
<path d="M166.6 143.8C166.6 143.3 166.6 142.5 166.6 142.5L168.8 142.1C168.8 142.1 169.1 142.6 169.3 143.1C169.6 143.7 170.6 144 170.4 144.9C170.3 145.2 169.2 145.5 168.6 145.8C168.1 146 166.7 146.7 166 147.1C165.2 147.5 163.9 147.7 163.7 147.3C163.2 146.3 166.5 144.6 166.6 143.8Z" fill="#001A37"/>
<path d="M166.4 142.4L168.5 141.6C168.5 141.6 169 142.6 169.2 143C169.2 143 167.3 144.1 166.9 144.1C166.4 144 166.5 143.7 166.5 143.7C166.6 143.1 166.4 142.4 166.4 142.4Z" fill="#FF9873"/>
<path d="M166.1 117C168 130.5 169.3 142 169.3 142C168.6 142.8 167.2 143.3 166.3 143C166.3 143 162.7 132 157.8 117.3C155.8 111.4 164.9 108.1 166.1 117Z" fill="#00C675"/>
<path d="M161.1 104.8C169.7 102.7 190.4 101.4 193.8 102.4C197.5 103.5 196.7 116.9 188.9 116.5C181.1 116.1 170.5 113.8 161.5 110.7C158.2 109.6 157.4 105.7 161.1 104.8Z" fill="#00E18E"/>
<path d="M157.6 101.7C158 101.8 158.5 101.9 158.9 101.8C158.4 101.9 158.5 102.2 158.1 102.4C157.9 102.4 157.1 102 157.2 101.8C157.1 101.5 157.3 101.7 157.6 101.7Z" fill="#FF3B78"/>
<path d="M181.4 73.4C181.4 74.4 182 77 182.4 77.5C181.8 79.4 178.9 79.7 178.6 78.7C178.9 77.5 178.2 75.5 178.1 75.3C178.8 75.3 181.2 73.6 181.4 73.4Z" fill="#FF9873"/>
<path d="M179.8 70.2C181.2 70.6 181.8 71.9 181.5 73.3L181.1 74.7C180.8 75.7 178.8 77 178 76.5C176 75.5 176.5 71.5 176.7 71C177.2 69.9 178.5 69.8 179.8 70.2Z" fill="#FF9873"/>
<path d="M175.2 85.7C174.9 83.7 174.7 81.1 176.4 79.8C176.8 79.5 178.6 78.7 178.6 78.7C178.6 78.7 179.3 79.4 180 79.2C181 79 182.4 77.4 182.4 77.4C182.4 77.4 184.7 77.6 185.5 77.8C192.2 79.6 196.6 92.7 196.6 111.9C196.3 112 195.4 111.6 194.6 110.9L193.6 104.2L193 107.8C187.6 105.5 179.8 107.4 175 102.7C175.6 92.6 175.3 86.9 175.2 85.7Z" fill="#FF8D00"/>
<path d="M180 79.3C181 79.1 182.4 77.5 182.4 77.5C182.4 77.5 183.6 77.6 184 77.6C184.8 77.7 185.5 77.9 185.5 77.9C182.8 79.7 178.9 84.1 178.9 84.1C178.9 84.1 177.3 81.7 176.9 79.6C177.1 79.5 178.7 78.8 178.7 78.8C178.7 78.8 179.3 79.4 180 79.3Z" fill="white"/>
<path d="M176.9 69.1C178.8 67.2 181.8 67.6 182.9 69.5C184.6 72.4 182.1 73.9 181.4 75.9C181.4 75.9 181.8 72.7 181.3 71.4C177.2 72 175.6 70.9 174.9 69.6C174.8 69.7 175.7 70.2 176.9 69.1Z" fill="#192344"/>
<path d="M181.8 72.8C182.1 72.9 182.3 73.5 182.1 73.9C182 74.2 181.4 74.6 181 74.5C181 74.1 181 73.3 181.1 72.8C181.4 72.7 181.7 72.7 181.8 72.8Z" fill="#FF9873"/>
<path d="M183.3 103.9C183.3 104.2 183 104.5 182.7 104.5H168.2C167.9 104.5 167.6 104.2 167.6 103.9H183.3Z" fill="#192344"/>
<path d="M166 91.1L169 103.7C169 103.9 169 104.5 168.3 104.5L156 104.3V90.2H164.9C165.4 90.2 165.9 90.6 166 91.1Z" fill="#192344"/>
<path d="M149.3 90.2H165C165.2 90.2 165.3 90.3 165.3 90.5L168.5 104C168.6 104.2 168.4 104.5 168.2 104.5H153.6C152.8 104.5 152.1 104 151.9 103.2L148.9 90.7C148.9 90.4 149.1 90.2 149.3 90.2Z" fill="#4619D9"/>
<path opacity="0.18" d="M163.7 103.7H167.7L166.9 100L163.7 103.7Z" fill="white"/>
<path opacity="0.18" d="M165.6 94.4L164.8 90.8H163.7C159.9 95.1 156.2 99.4 152.4 103.7H157.5L165.6 94.4Z" fill="white"/>
<path d="M185 85C185.3 83.5 188.5 85.1 188.5 85.1C188.5 85.1 188.2 88.6 183.6 92.5C180.6 95.1 176.8 95.3 176.8 95.3C176.8 95.3 184 89.7 185 85Z" fill="#F47500"/>
<path d="M164.4 94.5C164.7 94.7 165.1 94.8 165.5 94.9C165.1 94.9 165.1 95.1 164.7 95.2C164.5 95.2 164 94.6 164 94.5C164.1 94.2 164.2 94.4 164.4 94.5Z" fill="#FF9873"/>
<path d="M161.7 95.5C161.9 95.4 162.5 95.3 162.7 95.3C162.8 95.3 163.9 95.1 164.5 95C164.9 95 165.4 95 165.8 95C165.8 95 166.2 96.4 166.3 96.8C165.6 96.9 163.3 96.9 163.2 96.9C162.3 97.1 162 96.8 162.2 96.6C162.2 96.5 161.6 96.5 161.7 96.2C161.7 96.2 161.5 96.1 161.5 95.9C161.4 95.8 161.6 95.5 161.7 95.5Z" fill="#FF9873"/>
<path d="M176.8 91.2C176.9 91 177.1 90.8 177.3 90.6C178.3 89.4 179.6 87.3 180.9 85.4C182.2 83.4 183.3 81.6 184.1 80.8C184.2 80.7 184.4 80.6 184.6 80.6C185.4 80.7 188.3 83.5 188.7 84.2C189.8 86.3 181.9 92.9 179.6 94.4C177.4 95.8 169.5 97.2 166.1 97.4L165.8 94.6C167.2 94.5 170.7 93.4 173.5 92.4C174.6 91.8 175.8 91.4 176.8 91.2Z" fill="#FF8D00"/>
<path d="M82.0001 150.5C82.1001 150.9 81.7001 151.5 81.2001 151.5C80.7001 151.5 80.2001 151.3 80.1001 150.9L73.6001 129.6L79.3001 129.3L82.0001 150.5Z" fill="#192344"/>
<path d="M68.4 113.8L76.3 113.2L78.1 133.7L70.2 134.3C65.3 134.7 60.9 130.4 60.4 124.7C59.9 119 63.4 114.1 68.4 113.8Z" fill="#E50A43"/>
<path d="M76.0001 113.2C76.1001 113.2 76.2001 113.2 76.3001 113.2L104.4 101.6L107.9 140.9L78.1001 133.7C78.1001 133.7 78.1001 133.7 78.0001 133.7C75.1001 134 72.2002 129.6 71.7002 123.9C71.1002 118.2 73.0001 113.4 76.0001 113.2Z" fill="#FF1D52"/>
<path d="M105.4 101.4C110.8 100.9 116 109.4 117.1 120.4C118.2 131.3 114.8 140.6 109.4 141.1C106.3 141.4 103.2 138.6 100.9 134C99.8 131.8 99 129.3 98.4 126.5C98.1 125.1 97.9 123.6 97.7 122.1C97.6 120.6 97.5 119.1 97.5 117.7C97.5 114.4 98 111.3 98.8 108.8C100.1 104.4 102.5 101.6 105.4 101.4Z" fill="#E50A43"/>
<path d="M102.9 105.4C107.2 105 111.4 111.8 112.2 120.5C113.1 129.2 110.3 136.6 106.1 137C104.2 137.2 102.4 136 100.9 133.9C99.8 131.7 99 129.2 98.4 126.4C98.1 125 97.9 123.5 97.7 122C97.6 120.5 97.5 119 97.5 117.6C97.5 114.3 98 111.2 98.8 108.7C99.8 106.8 101.3 105.6 102.9 105.4Z" fill="#192344"/>
<path d="M102.7 116.8L97.6 115.7C97.6 115.7 96.9 121.4 99.1 129.2L103.7 126.9L102.7 116.8Z" fill="#E50A43"/>
<path d="M102.5 116.8C103.9 116.7 105.2 118.8 105.5 121.6C105.8 124.4 104.9 126.7 103.6 126.8C103 126.9 102.4 126.5 101.9 125.8C101.6 125.1 101.3 124.3 101.1 123.4C101 123 100.9 122.5 100.9 122C100.9 121.5 100.8 121.1 100.8 120.6C100.8 119.5 101 118.6 101.2 117.8C101.5 117.3 102 116.9 102.5 116.8Z" fill="#FF1D52"/>
<path d="M21.7999 84.9C22.3999 83.8 22.9999 83.4 22.3999 80.5C20.5999 71 29.1999 72.9 29.6999 75.4C29.7999 76 29.5999 76.5 28.8999 76C27.7999 75.1 24.4999 75 27.7999 80.2C28.6999 81.6 31.0999 83 27.5999 86.9C24.3999 90.4 27.7999 90.5 27.8999 91.7C28.1999 94.7 18.8999 90.4 21.7999 84.9Z" fill="#FF8D00"/>
<path d="M41.8999 105C42.1999 107 37.8999 156.4 37.8999 156.4C37.8999 156.5 36.5999 157.3 35.5999 156.5C35.5999 156.5 34.7999 145.1 33.2999 134.4C31.9999 125.1 32.1999 116.3 31.3999 115.7V105.9C35.0999 106.1 40.5999 105.6 41.8999 105Z" fill="#0B1028"/>
<path d="M35.2998 155.4C35.5998 155.5 36.6998 155.5 36.9998 155.4C36.9998 155.2 36.9998 155 37.0998 154.8C37.3998 154.7 37.8998 154.4 38.0998 154.3C37.9998 154.8 37.8998 157.6 38.3998 158C39.0998 158.5 40.2998 158.5 40.4998 158.5C41.4998 158.5 41.6998 159.1 41.6998 159.3C41.6998 159.7 41.4998 159.8 41.1998 159.8C39.9998 159.8 37.1998 159.8 36.3998 159.8C35.8998 159.8 35.3998 159.9 34.8998 159.4C34.6998 159.2 34.6998 158.9 34.7998 158.6C34.9998 158.3 35.2998 156.2 35.2998 155.4Z" fill="#FF8D00"/>
<path d="M55.7999 72.4C55.9999 72.3 56.3999 73.1 56.3999 73.3C56.1999 73.7 56.0999 73.8 55.8999 74.3C55.8999 73.9 55.7999 73.3 55.7999 72.9C55.5999 72.6 55.4999 72.4 55.7999 72.4Z" fill="#FF9873"/>
<path d="M36.1 83.4C38.3 83.3 45.3 84.9 48.8 85C53.1 85.2 51.4 88.1 50.1 88.5C46.6 89.5 36.7 90.5 36 88.8C35.7 88 35.7 83.4 36.1 83.4Z" fill="#FF9873"/>
<path d="M36.1 83.4C37.7 83.3 41.7 84 45.1 84.2C45.2 85.3 45.3 86.9 45.2 88.1C45.2 88.6 45.2 90 45.1 90.4C41.1 90.9 36.5 90 36 88.8C35.7 88 35.7 83.4 36.1 83.4Z" fill="#3011CC"/>
<path d="M48.4999 86C49.5999 83.9 54.9999 76.6 55.6999 74.2C56.3999 74.6 56.9999 74.9 57.4999 75C56.0999 78.9 51.6999 88.4 49.9999 88.3C48.4999 88.2 48.1999 87.1 48.2999 86.4C48.3999 86.3 48.4999 86.1 48.4999 86Z" fill="#FF9873"/>
<path d="M58.9001 72.5C58.4001 73.5 57.8001 74.7 57.6001 75.1C56.9001 75.2 55.8 74.3 55.8 74.3C56.1 73.8 56.3 73.1 56.5 72.6C56.7 72.1 57.4 71 57.5 71C57.6 70.8 58.0001 70.2 58.1001 70.1C58.3001 69.9 58.5001 69.9 58.7001 70C58.8001 70.1 58.9001 70.2 58.6001 70.8C58.2001 71.4 58 71.8 58 71.8C58 71.8 58.4001 71.7 58.4001 72C58.4001 72 58.8 71.9 58.8 72.3C58.8 72.2 59.0001 72.2 58.9001 72.5Z" fill="#FF9873"/>
<path d="M23.2 105C24.4 105.5 33.3 107.2 37.1 107C37.1 107 36.9 112 36.1 115C34.9 119.7 33.2 127.6 32.4 131.7C30.3 142.2 26.5 156.1 26.5 156.1C25.4 156.7 24.2 155.8 24.1 155.7C24.1 155.7 24.2 136.7 25 132.3C25.8 128.5 23.1 106.1 23.2 105Z" fill="#192344"/>
<path d="M42.0999 108.6C42.0999 108.6 43.2999 114.4 42.6999 114.9C41.3999 116 36.4999 115 32.7999 114.5C29.0999 114 22.1999 114.8 21.9999 114C21.4999 111.9 22.3999 107.4 22.3999 107.4L42.0999 108.6Z" fill="#3011CC"/>
<path d="M32.4998 77.4C32.7998 77.6 35.4999 79.1 36.2999 79C36.2999 79.2 35.7999 81.6 36.2999 82.8C35.7999 84.7 32.8999 83.8 32.0999 81.9C32.2999 81.3 32.5998 78.4 32.4998 77.4Z" fill="#FF9873"/>
<path d="M32.2 74.3C33.4 73.5 34.7 73.1 35.7 74.1C36 74.5 38.1 78.3 36.4 80.1C35.7 80.8 33.2 80.4 32.6 79.4L31.7 78.1C30.8 76.8 30.9 75.2 32.2 74.3Z" fill="#FF9873"/>
<path d="M24.5 87.7C25.4 85 26.4 83.5 28.8 82.9C29.6 82.7 32 81.9 32 81.9C32 81.9 33.7 83.6 34.8 83.7C35.6 83.8 36.2 82.8 36.2 82.8C36.2 82.8 39 83.8 39.5 84.1C41.5 85.4 41.5 87.5 41.6 89.3C42.7 107.2 43.5 109.8 43 110.8C41.8 113.2 21.6 111.6 22 108.6C23.2 98.6 24.2 88.5 24.5 87.7Z" fill="#4619D9"/>
<path d="M29.0998 75.4C29.8998 72.7 33.6998 72.8 33.6998 72.8C36.0998 71.9 37.3998 75.3 36.6998 76.3C35.7998 73.8 33.7998 73.9 33.7998 73.9C30.8998 75.6 31.8998 79.6 32.6998 80.3C32.6998 80.4 27.7998 79.4 29.0998 75.4Z" fill="#FF8D00"/>
<path d="M31.4 77.5C31.5 77.4 31.8 77.3 32.1 77.4C32.2 77.9 32.4 78.8 32.4 79.2C32 79.3 31.4 79 31.2 78.7C31 78.4 31.1 77.7 31.4 77.5Z" fill="#FF9873"/>
<path d="M28.6 74.6C28.7 74.4 28.9 74.3 29 74.2C29.4 74 29.8 74.1 29.8 74.1C29.1 74.9 28.9 76.1 28.9 76.1C28.4 75.9 28.2 75.4 28.6 74.6Z" fill="#4619D9"/>
<path d="M24.1999 155.3C24.4999 155.4 25.5999 155.5 25.8999 155.4C25.8999 155.2 25.8999 155 25.9999 154.8C26.2999 154.7 26.7999 154.4 27.0999 154.4C26.9999 154.9 26.6999 157.7 27.1999 158.1C27.7999 158.6 29.0999 158.7 29.2999 158.7C30.2999 158.8 30.4999 159.3 30.4999 159.6C30.4999 160 30.1999 160.1 29.9999 160.1C28.7999 160 25.9999 159.9 25.1999 159.8C24.6999 159.8 24.1999 159.8 23.7999 159.3C23.6999 159.1 23.6999 158.8 23.7999 158.5C23.6999 158.1 24.0999 156.1 24.1999 155.3Z" fill="#FF8D00"/>
<path d="M32.2999 87.8L28.3999 103.7C28.3999 103.9 28.3999 104.4 29.0999 104.4L35.8999 104.3L37.0999 87.1H33.3999C32.7999 87 32.3999 87.3 32.2999 87.8Z" fill="#8358FF"/>
<path d="M43.0998 87H33.6998C33.5998 87 33.3998 87.1 33.3998 87.2L29.2998 103.9C29.1998 104.1 29.3998 104.3 29.5998 104.3H38.0998C38.7998 104.3 39.4998 103.8 39.6998 103.1L43.5998 87.3C43.4998 87.2 43.2998 87 43.0998 87Z" fill="#9872FF"/>
<path d="M37.4998 95C37.6998 94.9 37.8998 94.7 37.9998 95C38.0998 95.2 37.3998 95.7 37.1998 95.7C36.6998 95.6 36.7998 95.3 36.2998 95.3C36.6998 95.3 37.0998 95.2 37.4998 95Z" fill="#FF9873"/>
<path d="M35.9998 95.3C36.3998 95.3 36.8998 95.4 37.3998 95.5C37.9998 95.6 39.1998 96 39.1998 96C39.3998 96.1 39.3998 96.1 39.5998 96.3C39.6998 96.4 39.8998 96.7 39.8998 96.9C39.8998 97.1 39.6998 97.2 39.6998 97.2C39.6998 97.5 39.0998 97.5 39.0998 97.5C39.1998 97.8 39.4998 98.1 38.5998 97.8C38.4998 97.8 36.0998 97.4 35.2998 97.3C35.2998 96.7 35.8998 95.3 35.9998 95.3Z" fill="#FF9873"/>
<path d="M31.0999 87.1C30.1999 89.1 25.9999 94.6 24.2999 97.6C22.1999 101.3 20.3999 98.5 20.5999 97.2C21.2999 93.7 24.8999 85 26.3999 84.6C27.0999 84.3 31.1999 86.7 31.0999 87.1Z" fill="#FF9873"/>
<path d="M31.6999 87.2C31.5999 88.8 28.5999 91.9 26.8999 94.9C25.2999 94.7 22.8999 93.6 21.3999 92.1C22.7999 88.3 24.7999 85.3 25.7999 84.5C28.2999 82.6 31.7999 85.2 31.6999 87.2Z" fill="#4619D9"/>
<path d="M21.8 96.6C22 96.5 22.1 96.5 22.2 96.4C24.6 96 33.6 96.1 36 95.3C36.1 96.1 36.2 96.8 36.4 97.3C32.4 98.5 22.2 100.5 21.3 99.1C20.4 97.8 21.1 96.9 21.8 96.6Z" fill="#FF9873"/>
<path opacity="0.15" d="M225 159.8C225 160.7 174.6 161.5 112.5 161.5C50.4 161.5 0 160.7 0 159.8C0 158.9 50.4 158.1 112.5 158.1C174.6 158.2 225 158.9 225 159.8Z" fill="#0B1028"/>
</svg>
