<svg width="42" height="14" viewBox="0 0 42 14" fill="none" xmlns="http://www.w3.org/2000/svg">
<g opacity="0.36">
<path opacity="0.0526316" d="M36.2 13.6H5.80005C2.70005 13.6 0.300049 10.7 0.300049 7C0.300049 3.4 2.80005 0.399994 5.80005 0.399994H36.3C39.4 0.399994 41.8 3.3 41.8 7C41.8 10.6 39.3 13.6 36.2 13.6Z" fill="url(#paint0_linear)"/>
<path opacity="0.1053" d="M36 13.4H6C3 13.4 0.5 10.5 0.5 7C0.5 3.4 2.9 0.599991 6 0.599991H36.1C39.1 0.599991 41.6 3.5 41.6 7C41.5 10.5 39 13.4 36 13.4Z" fill="url(#paint1_linear)"/>
<path opacity="0.1579" d="M35.8 13.2H6.20005C3.20005 13.2 0.800049 10.4 0.800049 6.89999C0.800049 3.39999 3.20005 0.599991 6.20005 0.599991H35.9C38.9 0.599991 41.3 3.39999 41.3 6.89999C41.2 10.3 38.8 13.2 35.8 13.2Z" fill="url(#paint2_linear)"/>
<path opacity="0.2105" d="M35.6001 13H6.4001C3.5001 13 1.1001 10.2 1.1001 6.8C1.1001 3.4 3.5001 0.599991 6.4001 0.599991H35.7001C38.6001 0.599991 41.0001 3.4 41.0001 6.8C40.9001 10.2 38.6001 13 35.6001 13Z" fill="url(#paint3_linear)"/>
<path opacity="0.2632" d="M35.3999 12.7H6.5999C3.6999 12.7 1.3999 10 1.3999 6.7C1.3999 3.4 3.6999 0.699997 6.5999 0.699997H35.4999C38.3999 0.699997 40.6999 3.4 40.6999 6.7C40.6999 10 38.2999 12.7 35.3999 12.7Z" fill="url(#paint4_linear)"/>
<path opacity="0.3158" d="M35.2001 12.5H6.8001C3.9001 12.5 1.6001 9.89999 1.6001 6.59999C1.6001 3.29999 3.9001 0.699997 6.8001 0.699997H35.3001C38.2001 0.699997 40.5001 3.39999 40.5001 6.59999C40.4001 9.89999 38.1001 12.5 35.2001 12.5Z" fill="url(#paint5_linear)"/>
<path opacity="0.3684" d="M34.9999 12.3H6.9999C4.1999 12.3 1.8999 9.7 1.8999 6.5C1.8999 3.3 4.1999 0.699997 6.9999 0.699997H35.0999C37.8999 0.699997 40.1999 3.3 40.1999 6.5C40.0999 9.7 37.8999 12.3 34.9999 12.3Z" fill="url(#paint6_linear)"/>
<path opacity="0.4211" d="M34.7999 12.1H7.19995C4.39995 12.1 2.19995 9.59999 2.19995 6.39999C2.19995 3.29999 4.49995 0.699997 7.19995 0.699997H34.8999C37.6999 0.699997 39.8999 3.19999 39.8999 6.39999C39.8999 9.59999 37.5999 12.1 34.7999 12.1Z" fill="url(#paint7_linear)"/>
<path opacity="0.4737" d="M34.5999 11.9H7.3999C4.6999 11.9 2.3999 9.39999 2.3999 6.39999C2.3999 3.29999 4.5999 0.899994 7.3999 0.899994H34.6999C37.3999 0.899994 39.6999 3.39999 39.6999 6.39999C39.5999 9.39999 37.3999 11.9 34.5999 11.9Z" fill="url(#paint8_linear)"/>
<path opacity="0.5263" d="M34.4 11.7H7.59995C4.89995 11.7 2.69995 9.3 2.69995 6.3C2.69995 3.3 4.89995 0.899994 7.59995 0.899994H34.5C37.2 0.899994 39.3999 3.3 39.3999 6.3C39.2999 9.3 37.1 11.7 34.4 11.7Z" fill="url(#paint9_linear)"/>
<path opacity="0.5789" d="M34.2 11.5H7.8C5.1 11.5 3 9.1 3 6.2C3 3.3 5.2 0.899994 7.8 0.899994H34.3C37 0.899994 39.1 3.3 39.1 6.2C39.1 9.1 36.9 11.5 34.2 11.5Z" fill="url(#paint10_linear)"/>
<path opacity="0.6316" d="M34 11.3H8.00005C5.40005 11.3 3.30005 9 3.30005 6.2C3.30005 3.4 5.40005 1.09999 8.00005 1.09999H34.1C36.7 1.09999 38.8 3.4 38.8 6.2C38.8 9 36.7 11.3 34 11.3Z" fill="url(#paint11_linear)"/>
<path opacity="0.6842" d="M33.8 11.1H8.2C5.6 11.1 3.5 8.89999 3.5 6.09999C3.5 3.29999 5.6 1.09999 8.2 1.09999H33.9C36.5 1.09999 38.6 3.29999 38.6 6.09999C38.5 8.79999 36.4 11.1 33.8 11.1Z" fill="url(#paint12_linear)"/>
<path opacity="0.7368" d="M33.6 10.9H8.29995C5.79995 10.9 3.69995 8.7 3.69995 6C3.69995 3.3 5.79995 1.09999 8.29995 1.09999H33.6C36.1 1.09999 38.2 3.3 38.2 6C38.2 8.7 36.2 10.9 33.6 10.9Z" fill="url(#paint13_linear)"/>
<path opacity="0.7895" d="M33.5 10.7H8.5C6 10.7 4 8.59999 4 5.89999C4 3.29999 6 1.09999 8.5 1.09999H33.4C35.9 1.09999 37.9 3.19999 37.9 5.89999C38 8.49999 35.9 10.7 33.5 10.7Z" fill="url(#paint14_linear)"/>
<path opacity="0.8421" d="M33.3 10.4H8.69995C6.19995 10.4 4.19995 8.3 4.19995 5.8C4.19995 3.2 6.19995 1.2 8.69995 1.2H33.1999C35.6999 1.2 37.7 3.3 37.7 5.8C37.7 8.4 35.7 10.4 33.3 10.4Z" fill="url(#paint15_linear)"/>
<path opacity="0.8947" d="M33.1 10.2H8.9C6.5 10.2 4.5 8.2 4.5 5.7C4.5 3.2 6.5 1.2 8.9 1.2H33.1C35.5 1.2 37.5 3.2 37.5 5.7C37.4 8.2 35.5 10.2 33.1 10.2Z" fill="url(#paint16_linear)"/>
<path opacity="0.9474" d="M32.9 10H9.10005C6.70005 10 4.80005 7.99999 4.80005 5.59999C4.80005 3.19999 6.70005 1.2 9.10005 1.2H32.8C35.2 1.2 37.1 3.19999 37.1 5.59999C37.2 8.09999 35.2 10 32.9 10Z" fill="url(#paint17_linear)"/>
<path opacity="0.36" d="M32.7001 9.8H9.3001C7.0001 9.8 5.1001 7.89999 5.1001 5.59999C5.1001 3.29999 7.0001 1.39999 9.3001 1.39999H32.6001C34.9001 1.39999 36.8001 3.29999 36.8001 5.59999C36.9001 7.89999 35.0001 9.8 32.7001 9.8Z" fill="url(#paint18_linear)"/>
</g>
<path d="M35.6001 10.6H6.4001C3.5001 10.6 1.1001 8.2 1.1001 5.3C1.1001 2.4 3.5001 0 6.4001 0H35.7001C38.6001 0 41.0001 2.4 41.0001 5.3C40.9001 8.3 38.6001 10.6 35.6001 10.6Z" fill="url(#paint19_linear)"/>
<path d="M9.9 7.39999C9.5 7.39999 9.2 7.3 9 7.2C8.8 7 8.6 6.8 8.5 6.5L9.1 6.09999C9.2 6.49999 9.5 6.7 9.9 6.7C10.1 6.7 10.2 6.69999 10.3 6.59999C10.4 6.49999 10.4 6.4 10.4 6.3C10.4 6.2 10.3 6.1 10.2 6C10.1 5.9 9.9 5.9 9.6 5.8C9.4 5.8 9.3 5.7 9.2 5.7C9.1 5.7 9 5.6 8.9 5.5C8.8 5.4 8.7 5.3 8.6 5.2C8.5 5.1 8.5 4.9 8.5 4.8C8.5 4.5 8.6 4.2 8.8 4C9 3.8 9.3 3.7 9.6 3.7C9.9 3.7 10.2 3.79999 10.4 3.89999C10.6 3.99999 10.8 4.2 10.9 4.5L10.3 4.8C10.2 4.5 9.9 4.3 9.6 4.3C9.5 4.3 9.3 4.29999 9.3 4.39999C9.2 4.49999 9.2 4.6 9.2 4.7C9.2 4.8 9.2 4.9 9.3 5C9.4 5.1 9.6 5.1 9.8 5.2C9.9 5.2 10 5.3 10.1 5.3C10.2 5.3 10.2 5.29999 10.3 5.39999C10.4 5.39999 10.5 5.5 10.5 5.5C10.6 5.5 10.6 5.59999 10.7 5.59999C10.8 5.69999 10.8 5.7 10.9 5.8C10.9 5.9 11 5.9 11 6C11 6.1 11 6.2 11 6.3C11 6.6 10.9 6.89999 10.6 7.09999C10.6 7.29999 10.3 7.39999 9.9 7.39999Z" fill="white"/>
<path d="M11.6001 3.7H12.3001V7.3H11.6001V3.7Z" fill="white"/>
<path d="M16.6 5.39999V5.7C16.6 6.2 16.4 6.6 16.1 7C15.8 7.3 15.3 7.5 14.8 7.5C14.2 7.5 13.8 7.3 13.4 7C13 6.6 12.8 6.2 12.8 5.7C12.8 5.2 13 4.69999 13.3 4.39999C13.7 3.99999 14.1 3.89999 14.7 3.89999C15 3.89999 15.3 3.99999 15.6 4.09999C15.9 4.29999 16.1 4.5 16.3 4.7L15.7 5.09999C15.6 4.99999 15.5 4.8 15.3 4.7C15.1 4.6 14.9 4.59999 14.7 4.59999C14.4 4.59999 14.1 4.69999 13.8 4.89999C13.6 5.09999 13.5 5.4 13.5 5.8C13.5 6.1 13.6 6.39999 13.8 6.59999C14 6.79999 14.3 6.89999 14.7 6.89999C15 6.89999 15.2 6.8 15.4 6.7C15.6 6.6 15.7 6.4 15.8 6.2H14.7V5.59999H16.6V5.39999Z" fill="white"/>
<path d="M19.2001 3.7H19.9001V7.3H19.4001L17.8001 5.09999V7.3H17.1001V3.7H17.6001L19.2001 5.89999V3.7Z" fill="white"/>
<path d="M23.2 7.39999C22.8 7.39999 22.5 7.29999 22.2 7.09999C21.9 6.89999 21.8 6.6 21.8 6.2V3.8H22.5V6.2C22.5 6.4 22.6 6.49999 22.7 6.59999C22.8 6.69999 23 6.8 23.2 6.8C23.4 6.8 23.6 6.69999 23.7 6.59999C23.8 6.49999 23.9 6.3 23.9 6.2V3.8H24.6V6.2C24.6 6.6 24.5 6.89999 24.2 7.09999C24 7.29999 23.6 7.39999 23.2 7.39999Z" fill="white"/>
<path d="M26.6 3.7C26.9 3.7 27.2 3.79999 27.5 4.09999C27.7 4.29999 27.9 4.6 27.9 5C27.9 5.3 27.8 5.59999 27.5 5.89999C27.3 6.09999 27 6.3 26.6 6.3H26V7.5H25.3V3.89999H26.6V3.7ZM26.6 5.5C26.8 5.5 26.9 5.4 27 5.3C27.1 5.2 27.1 5.09999 27.1 4.89999C27.1 4.69999 27 4.6 27 4.5C26.9 4.4 26.8 4.3 26.6 4.3H26V5.39999H26.6V5.5Z" fill="white"/>
<path d="M35.5 5.3L31.5 3V7.59999L35.5 5.3Z" fill="white"/>
<defs>
<linearGradient id="paint0_linear" x1="0.242749" y1="7.02009" x2="41.7552" y2="7.02009" gradientUnits="userSpaceOnUse">
<stop stop-color="#9671FF"/>
<stop offset="1" stop-color="#7A4FFF"/>
</linearGradient>
<linearGradient id="paint1_linear" x1="0.5127" y1="6.93999" x2="41.4852" y2="6.93999" gradientUnits="userSpaceOnUse">
<stop stop-color="#9671FF"/>
<stop offset="1" stop-color="#7A4FFF"/>
</linearGradient>
<linearGradient id="paint2_linear" x1="0.782849" y1="6.85989" x2="41.2151" y2="6.85989" gradientUnits="userSpaceOnUse">
<stop stop-color="#9671FF"/>
<stop offset="1" stop-color="#7A4FFF"/>
</linearGradient>
<linearGradient id="paint3_linear" x1="1.053" y1="6.7798" x2="40.9451" y2="6.7798" gradientUnits="userSpaceOnUse">
<stop stop-color="#9671FF"/>
<stop offset="1" stop-color="#7A4FFF"/>
</linearGradient>
<linearGradient id="paint4_linear" x1="1.3228" y1="6.6998" x2="40.6749" y2="6.6998" gradientUnits="userSpaceOnUse">
<stop stop-color="#9671FF"/>
<stop offset="1" stop-color="#7A4FFF"/>
</linearGradient>
<linearGradient id="paint5_linear" x1="1.5931" y1="6.6197" x2="40.405" y2="6.6197" gradientUnits="userSpaceOnUse">
<stop stop-color="#9671FF"/>
<stop offset="1" stop-color="#7A4FFF"/>
</linearGradient>
<linearGradient id="paint6_linear" x1="1.863" y1="6.5396" x2="40.1347" y2="6.5396" gradientUnits="userSpaceOnUse">
<stop stop-color="#9671FF"/>
<stop offset="1" stop-color="#7A4FFF"/>
</linearGradient>
<linearGradient id="paint7_linear" x1="2.13305" y1="6.45949" x2="39.8647" y2="6.45949" gradientUnits="userSpaceOnUse">
<stop stop-color="#9671FF"/>
<stop offset="1" stop-color="#7A4FFF"/>
</linearGradient>
<linearGradient id="paint8_linear" x1="2.4031" y1="6.37949" x2="39.5946" y2="6.37949" gradientUnits="userSpaceOnUse">
<stop stop-color="#9671FF"/>
<stop offset="1" stop-color="#7A4FFF"/>
</linearGradient>
<linearGradient id="paint9_linear" x1="2.67325" y1="6.2994" x2="39.3245" y2="6.2994" gradientUnits="userSpaceOnUse">
<stop stop-color="#9671FF"/>
<stop offset="1" stop-color="#7A4FFF"/>
</linearGradient>
<linearGradient id="paint10_linear" x1="2.9434" y1="6.2193" x2="39.0545" y2="6.2193" gradientUnits="userSpaceOnUse">
<stop stop-color="#9671FF"/>
<stop offset="1" stop-color="#7A4FFF"/>
</linearGradient>
<linearGradient id="paint11_linear" x1="3.21345" y1="6.1392" x2="38.7845" y2="6.1392" gradientUnits="userSpaceOnUse">
<stop stop-color="#9671FF"/>
<stop offset="1" stop-color="#7A4FFF"/>
</linearGradient>
<linearGradient id="paint12_linear" x1="3.4835" y1="6.05919" x2="38.5144" y2="6.05919" gradientUnits="userSpaceOnUse">
<stop stop-color="#9671FF"/>
<stop offset="1" stop-color="#7A4FFF"/>
</linearGradient>
<linearGradient id="paint13_linear" x1="3.75355" y1="5.97909" x2="38.2443" y2="5.97909" gradientUnits="userSpaceOnUse">
<stop stop-color="#9671FF"/>
<stop offset="1" stop-color="#7A4FFF"/>
</linearGradient>
<linearGradient id="paint14_linear" x1="4.0236" y1="5.89899" x2="37.9743" y2="5.89899" gradientUnits="userSpaceOnUse">
<stop stop-color="#9671FF"/>
<stop offset="1" stop-color="#7A4FFF"/>
</linearGradient>
<linearGradient id="paint15_linear" x1="4.29365" y1="5.8189" x2="37.7042" y2="5.8189" gradientUnits="userSpaceOnUse">
<stop stop-color="#9671FF"/>
<stop offset="1" stop-color="#7A4FFF"/>
</linearGradient>
<linearGradient id="paint16_linear" x1="4.5638" y1="5.7388" x2="37.4341" y2="5.7388" gradientUnits="userSpaceOnUse">
<stop stop-color="#9671FF"/>
<stop offset="1" stop-color="#7A4FFF"/>
</linearGradient>
<linearGradient id="paint17_linear" x1="4.83385" y1="5.6588" x2="37.1641" y2="5.6588" gradientUnits="userSpaceOnUse">
<stop stop-color="#9671FF"/>
<stop offset="1" stop-color="#7A4FFF"/>
</linearGradient>
<linearGradient id="paint18_linear" x1="5.104" y1="5.5787" x2="36.8941" y2="5.5787" gradientUnits="userSpaceOnUse">
<stop stop-color="#9671FF"/>
<stop offset="1" stop-color="#7A4FFF"/>
</linearGradient>
<linearGradient id="paint19_linear" x1="1.0484" y1="5.32079" x2="40.9497" y2="5.32079" gradientUnits="userSpaceOnUse">
<stop stop-color="#9671FF"/>
<stop offset="1" stop-color="#7A4FFF"/>
</linearGradient>
</defs>
</svg>
