<svg width="162" height="105" viewBox="0 0 162 105" fill="none" xmlns="http://www.w3.org/2000/svg">
<path opacity="0.15" d="M161.4 102.7C161.4 103.6 125.3 104.4 80.7 104.4C36.1 104.4 0 103.6 0 102.7C0 101.8 36.1 101 80.7 101C125.3 101 161.4 101.8 161.4 102.7Z" fill="#0B1028"/>
<path d="M13.1 86.8C14 91.4 16.4 95.9 20.2 98.8C24.7 102.2 30.5 102.5 36 102.5C42.2 102.5 56.1 104.6 60.3 94.9C60.4 94.7 60.5 94.4 60.6 94.2C64.3 83.9 57.1 73.3 45.2 71.9C42.1 70.3 38.3 58.1 35.8 55.7C32.2 52.2 27.3 51.7 23.2 54.4C22.9 54.6 22.7 54.7 22.4 54.9C21.6 55.5 21 56.1 20.4 56.9C17.6 60.2 16.2 64.7 15 68.7C13.1 74.4 11.9 80.7 13.1 86.8Z" fill="#FF8D00"/>
<path d="M32 78.5C32 78.5 28.9 73.1 24.5 71.1C24.5 71.1 31.4 74.3 34.3 79.4L32 78.5Z" fill="#F47500"/>
<path d="M32 78.5C32 78.5 43.1 80.9 46.3 83.6C46.3 83.6 38.8 80.6 33.1 80.7L32 78.5Z" fill="#DF8900"/>
<path d="M13.1 86.8C14 91.4 16.4 95.9 20.2 98.8C24.7 102.2 30.5 102.5 36 102.5C42.2 102.5 56.1 104.6 60.3 94.9C58.1 97.4 46.3 100.5 40.3 100.5C27.7 100.5 21.8 98.9 19.1 93.3C12.8 80.1 16 65.6 20.4 56.8C17.6 60.1 16.2 64.6 15 68.6C13.1 74.4 11.9 80.7 13.1 86.8Z" fill="#F47500"/>
<path d="M33.1001 78.5C33.1001 78.5 41.6001 75.7 47.2001 77.9C47.2001 77.9 37.6001 77.4 34.3001 80L33.1001 78.5Z" fill="#DF8900"/>
<path d="M36.4999 74.1C39.0999 73.2 55.0999 73.6 61.7999 75C64.5999 75.6 64.3999 79.2 61.7999 80.1C54.9999 82.7 46.1999 82.8 40.1999 82.3C34.8999 81.9 33.6999 75 36.4999 74.1Z" fill="#3011CC"/>
<path d="M43 96.3L44 97.7C44 97.7 43.5 98.1 43.3 98.4C42.9 98.9 43.9 101.6 43.1 101.9C42.8 102 42.2 101.2 41.9 100.6C41.7 100 41.2 98.9 41.1 98.5C40.9 98 40.5 97.3 40.6 97C40.9 96.4 41.7 96.7 42.1 96.5C42.6 96.4 43 96.3 43 96.3Z" fill="#192344"/>
<path d="M44.0999 97.7C44.0999 97.7 43.5999 98 43.2999 98.4C43.2999 98.4 43.1999 98.6 42.8999 98.4C42.5999 98.2 42.2 96.6 42.2 96.6C42.6 96.4 43.2999 96.2 43.2999 96.2L44.0999 97.7Z" fill="#FFA493"/>
<path d="M33.2001 71.4C35.9001 71 52.9001 75.3 59.1001 78C61.8001 79.2 60.8001 82.6 58.1001 83C50.9001 84.1 41.1001 84.1 35.4001 82.3C30.3001 80.8 30.3001 71.8 33.2001 71.4Z" fill="#4619D9"/>
<path d="M59.5 83.8C50.7 91.9 44.1 97.9 44.1 97.9C43.4 97.8 42.7 97 42.3 96.4C42.3 96.4 47.7 88.8 54 80.4C58.2 74.9 63.1 80.5 59.5 83.8Z" fill="#4619D9"/>
<path d="M65.7 98.7L67.4 98.5C67.4 98.5 67.5 99.1 67.7 99.5C68 100.1 70.8 100.5 70.7 101.3C70.7 101.7 69.7 101.8 69 101.7C68.4 101.6 67.2 101.5 66.8 101.4C66.3 101.3 65.4 101.4 65.3 101.2C64.9 100.7 65.6 100.1 65.6 99.6C65.6 99.1 65.7 98.7 65.7 98.7Z" fill="#192344"/>
<path d="M67.4 98.4C67.4 98.4 67.4 98.9 67.6 99.4C67.6 99.4 67.8 99.6 67.4 99.8C67.1 99.9 65.5 99.6 65.5 99.6C65.5 99.2 65.7 98.4 65.7 98.4H67.4Z" fill="#FFA493"/>
<path d="M64.6001 77.9C66.3001 89.7 67.6001 98.5 67.6001 98.5C67.1001 99 66.0001 99.1 65.2001 98.8C65.2001 98.8 62.0001 90.2 58.7001 80.3C56.5001 73.8 63.9001 73.1 64.6001 77.9Z" fill="#3011CC"/>
<path d="M30.6999 47.2C30.2999 49.9 29.6999 50.1 28.7999 50.9C24.6999 54.8 31.4999 61.4 32.1999 58.7C32.4999 57.6 29.4999 56.5 33.3999 54.4C37.6999 52.1 35.8999 50.1 35.5999 48.6C34.2999 43 37.0999 44.1 37.8999 45.2C38.2999 45.8 38.6999 45.5 38.7999 44.9C39.0999 42.5 31.9999 38.2 30.6999 47.2Z" fill="#192344"/>
<path d="M57.7001 71C57.4001 71.1 57.1 71.2 56.8 71.2C56.8 71.4 56.9 71.6 57.3 71.7C57.5 71.7 58.2001 71.2 58.2001 71C58.1001 70.8 57.9001 71 57.7001 71Z" fill="#FF9873"/>
<path d="M58.9001 72.4C58.8001 72.4 58.0001 71.8 57.6001 71.6C57.3001 71.4 56.9001 71.3 56.5001 71.1C56.5001 71.1 55.8001 72.1 55.6001 72.5C56.2001 72.8 59.1001 74.5 59.0001 73.7C59.0001 73.6 59.5001 73.9 59.5001 73.6C59.5001 73.6 59.7001 73.6 59.7001 73.4C59.8001 73.2 59.8001 73 59.6001 72.9C59.5001 72.8 59.1001 72.5 58.9001 72.4Z" fill="#FF9873"/>
<path d="M48.6 64.9C48.6 64.7 47.7 58.4 46 55.2C45.1 53.5 42 53 42 56.2C42 58.3 44.4 63.9 45.8 65.8C47.1 67.7 53.1 71.3 55.7 72.6L56.5 71.1C55.4 70.6 52.9 68.5 51 66.9C50.1 66.2 49.3 65.4 48.6 64.9Z" fill="#FF9873"/>
<path d="M48.0999 60.2C47.8999 58.3 47.2 56.5 46.7 55.6C45.2 52.8 42.7 54.7 42.7 56.6C42.7 57.9 42.6999 59.7 43.0999 61.3L48.0999 60.2Z" fill="#00C675"/>
<path d="M40 48.2C40.1 49.1 39.8 51.4 39.5 51.8C40.1 53.4 42.7 53.5 42.9 52.6C42.5 51.6 43 49.8 43 49.6C42.4 49.7 40.2 48.4 40 48.2Z" fill="#FF9873"/>
<path d="M47.2999 74.5C45.8999 76.4 39.6999 77.3 34.0999 74.9L33.7999 71.3L32.6999 79.5C32.1999 79.7 31.5999 79.7 31.2999 79.4C29.7999 62.7 31.1999 54.4 36.7999 52.4C37.3999 52.2 39.3999 51.8 39.3999 51.8C39.3999 51.8 40.6999 53.1 41.5999 53.1C42.7999 53.1 42.7999 52.5 42.7999 52.5C42.7999 52.5 44.4999 53 44.8999 53.2C46.0999 53.9 46.2999 55.4 46.2999 56.8C46.2999 57.3 46.2999 57.8 46.2999 58.2C46.2999 58.7 46.2999 59.3 46.3999 59.9C46.5999 62.2 46.9999 65.4 47.1999 69C47.1999 69.7 47.2999 70.5 47.2999 71.3C47.1999 72.5 47.2999 73.5 47.2999 74.5Z" fill="#00E18E"/>
<path d="M41.7001 53.1C40.8001 53.1 39.4 51.9 39.4 51.9C39.4 51.9 38.4 52.1 38.1 52.1C37.4 52.2 36.8 52.5 36.8 52.5C39.3 53.8 43 57.3 43 57.3C43 57.3 44.6 55.2 44.8 53.3C44.3 53 42.8 52.6 42.8 52.6C42.8 52.6 42.6001 53.1 41.7001 53.1Z" fill="#F1EEFF"/>
<path d="M41.1999 44.7C39.7999 45.1 39.1999 46.5 39.5999 47.9L39.9999 49.3C40.2999 50.3 42.2999 51.5 43.1999 51.1C45.1999 50.1 44.4999 46 44.3999 45.6C43.8999 44.4 42.4999 44.3 41.1999 44.7Z" fill="#FF9873"/>
<path d="M43.0999 43.7C43.0999 43.7 39.7999 42.5 38.1999 44.6C35.8999 47.8 39.8999 50.1 39.8999 50.1C40.0999 49 39.7999 45.4 42.7999 44.8C42.7999 44.8 44.5999 45.2 44.5999 47.8C45.5999 47.1 45.3999 43.7 43.0999 43.7Z" fill="#192344"/>
<path d="M47.2 71.5C44.1 70.2 39.8 68 38.6 66.7C37.8 65.8 36.6 63.9 35.6 62L35.3 62.1C34.4 60.4 34 58.5 33.8 57.6C33.4 54.4 36.6 54.6 37.6 56.1C38.4 57.2 39.4 58.6 39.9 60.2L39.6 60.3C40.5 62.9 41.2 65.3 41.2 65.5C41.9 65.9 42.8 66.6 43.8 67.2C44.8 67.9 45.9 68.6 47 69.3C47.1 70 47.2 70.7 47.2 71.5Z" fill="#00C675"/>
<path d="M39.2 48.3C39.3 48.6 39.8 49.1 40.1 49.1C40.2 48.7 40.3 47.9 40.4 47.4C40.2 47.3 39.9 47.3 39.8 47.3C39.4 47.4 39.1 47.9 39.2 48.3Z" fill="#FF9873"/>
<path d="M38.5001 43.6C38.3001 43.6 38.2001 43.7 38.0001 43.8C37.4001 44.4 37.5001 44.9 37.8001 45.3C37.8001 45.3 38.4001 44.3 39.2001 43.8C39.2001 43.8 38.9001 43.5 38.5001 43.6Z" fill="#FF8D00"/>
<path d="M35.3 71.9C35.3 72.2 35.6 72.5 35.9 72.5H49.5C49.8 72.5 50.1 72.2 50.1 71.9H35.3Z" fill="#8358FF"/>
<path d="M51.6001 59.9L48.8 71.8C48.8 72 48.8 72.5 49.5 72.5L61.1001 72.4V59.2H52.7001C52.2001 59.1 51.7001 59.4 51.6001 59.9Z" fill="#8358FF"/>
<path d="M67.2999 59.1H52.4999C52.2999 59.1 52.1999 59.2 52.1999 59.3L49.1999 72C49.0999 72.2 49.2999 72.4 49.4999 72.4H63.2999C64.0999 72.4 64.6999 71.9 64.8999 71.2L67.6999 59.5C67.6999 59.3 67.4999 59.1 67.2999 59.1Z" fill="#9872FF"/>
<path d="M53.8 71.7H50L50.8 68.3L53.8 71.7Z" fill="#A68DFF"/>
<path d="M52 63L52.8 59.6H53.9C57.4 63.7 61 67.7 64.5 71.8H59.7L52 63Z" fill="#A68DFF"/>
<path d="M51.2001 69.4C50.9001 69.6 50.6 69.7 50.3 69.7C50.3 69.9 50.4 70.1 50.8 70.1C51 70.1 51.6001 69.5 51.6001 69.3C51.6001 69.1 51.4001 69.3 51.2001 69.4Z" fill="#FF9873"/>
<path d="M49.4 71.2C46.6 70.2 40.3 67.3 38.8 65.6C38 64.7 36.7 62.7 35.7 60.8C34.8 59.1 34.1 57.4 34 56.5C33.6 53.3 36.8 53.5 37.8 55C38.6 56.1 39.2 57.7 39.8 59.2C40.7 61.8 41.4 64.2 41.4 64.4C42.1 64.8 43 65.5 44 66.1C46.1 67.5 48.6 69.2 49.8 69.7H49.9L49.4 71.2Z" fill="#FF9873"/>
<path d="M50 69.6C50.4 69.7 50.9 69.9 51.3 70.1C51.7 70.3 52.6001 70.8 52.7001 70.8C52.9001 70.9 53.4 71.1 53.5 71.3C53.6 71.4 53.7001 71.7 53.6001 71.8C53.6001 72 53.4 72 53.4 72C53.4 72.2 52.8 72.1 52.9 72.2C52.9 72.4 52.7 72.6 51.9 72.2C51.9 72.2 49.9 71.5 49.3 71.3C49.5 70.7 50 69.6 50 69.6Z" fill="#FF9873"/>
<path d="M35.5 60.9C34.6 59.2 34.2 57.3 34 56.4C33.6 53.2 36.8 53.4 37.8 54.9C38.6 56 39.5 57.4 40.1 59L35.5 60.9Z" fill="#00C675"/>
<path d="M151.8 32.3L149.7 30.2L148 31H120.8C118 31 115.3 33 114.9 35.5L105 98C105 98.1 105 98.1 105 98.2L104.8 98.1L103.9 99.1L106 101.2C106.8 102 108 102.5 109.4 102.5L137 102.6C139.8 102.6 142.5 100.6 142.9 98.1L152.8 35.5C153.1 34.2 152.7 33.1 151.8 32.3Z" fill="#3011CC"/>
<path d="M134 100.8C133.8 100.8 133.8 100.9 133.9 101.1C134 101.2 134.3 101.4 134.5 101.4C134.7 101.4 134.7 101.3 134.6 101.1C134.4 100.9 134.2 100.8 134 100.8Z" fill="#4E7DE4"/>
<path d="M133 100.8C132.8 100.8 132.8 100.9 132.9 101.1C133 101.2 133.3 101.4 133.5 101.4C133.7 101.4 133.7 101.3 133.6 101.1C133.4 100.9 133.2 100.8 133 100.8Z" fill="#4E7DE4"/>
<path d="M132 100.8C131.8 100.8 131.8 100.9 131.9 101.1C132 101.2 132.3 101.4 132.5 101.4C132.7 101.4 132.7 101.3 132.6 101.1C132.4 100.9 132.2 100.8 132 100.8Z" fill="#4E7DE4"/>
<path d="M131 100.8C130.8 100.8 130.8 100.9 130.9 101.1C131 101.2 131.3 101.4 131.5 101.4C131.7 101.4 131.7 101.3 131.6 101.1C131.5 100.9 131.2 100.8 131 100.8Z" fill="#4E7DE4"/>
<path d="M130 100.8C129.8 100.8 129.8 100.9 129.9 101.1C130 101.2 130.3 101.4 130.5 101.4C130.7 101.4 130.7 101.3 130.6 101.1C130.5 100.9 130.2 100.8 130 100.8Z" fill="#4E7DE4"/>
<path d="M129 100.8C128.8 100.8 128.8 100.9 128.9 101.1C129 101.2 129.3 101.4 129.5 101.4C129.7 101.4 129.7 101.3 129.6 101.1C129.5 100.9 129.2 100.8 129 100.8Z" fill="#4E7DE4"/>
<path d="M128.1 100.8C127.9 100.8 127.9 100.9 128 101.1C128.1 101.2 128.4 101.4 128.6 101.4C128.8 101.4 128.8 101.3 128.7 101.1C128.5 100.9 128.2 100.8 128.1 100.8Z" fill="#4E7DE4"/>
<path d="M134.8 101.6C134.6 101.6 134.6 101.7 134.7 101.9C134.8 102 135.1 102.2 135.3 102.2C135.5 102.2 135.5 102.1 135.4 101.9C135.2 101.7 134.9 101.6 134.8 101.6Z" fill="#4E7DE4"/>
<path d="M133.8 101.6C133.6 101.6 133.6 101.7 133.7 101.9C133.8 102 134.1 102.2 134.3 102.2C134.5 102.2 134.5 102.1 134.4 101.9C134.2 101.7 133.9 101.6 133.8 101.6Z" fill="#4E7DE4"/>
<path d="M132.8 101.6C132.6 101.6 132.6 101.7 132.7 101.9C132.8 102 133.1 102.2 133.3 102.2C133.5 102.2 133.5 102.1 133.4 101.9C133.2 101.7 133 101.6 132.8 101.6Z" fill="#4E7DE4"/>
<path d="M131.8 101.6C131.6 101.6 131.6 101.7 131.7 101.9C131.8 102 132.1 102.2 132.3 102.2C132.5 102.2 132.5 102.1 132.4 101.9C132.2 101.7 132 101.6 131.8 101.6Z" fill="#4E7DE4"/>
<path d="M130.8 101.6C130.6 101.6 130.6 101.7 130.7 101.9C130.8 102 131.1 102.2 131.3 102.2C131.5 102.2 131.5 102.1 131.4 101.9C131.2 101.7 131 101.6 130.8 101.6Z" fill="#4E7DE4"/>
<path d="M129.8 101.6C129.6 101.6 129.6 101.7 129.7 101.9C129.8 102 130.1 102.2 130.3 102.2C130.5 102.2 130.5 102.1 130.4 101.9C130.2 101.7 130 101.6 129.8 101.6Z" fill="#4E7DE4"/>
<path d="M128.8 101.6C128.6 101.6 128.6 101.7 128.7 101.9C128.8 102 129.1 102.2 129.3 102.2C129.5 102.2 129.5 102.1 129.4 101.9C129.3 101.7 129 101.6 128.8 101.6Z" fill="#4E7DE4"/>
<path d="M127.1 100.8C126.9 100.8 126.9 100.9 127 101.1C127.1 101.2 127.4 101.4 127.6 101.4C127.8 101.4 127.8 101.3 127.7 101.1C127.5 100.9 127.3 100.8 127.1 100.8Z" fill="#4E7DE4"/>
<path d="M127.9 101.6C127.7 101.6 127.7 101.7 127.8 101.9C127.9 102 128.2 102.2 128.4 102.2C128.6 102.2 128.6 102.1 128.5 101.9C128.3 101.7 128.1 101.6 127.9 101.6Z" fill="#4E7DE4"/>
<path d="M126.2 100.8C126 100.8 126 100.9 126.1 101.1C126.2 101.2 126.5 101.4 126.7 101.4C126.9 101.4 126.9 101.3 126.8 101.1C126.6 100.9 126.3 100.8 126.2 100.8Z" fill="#4E7DE4"/>
<path d="M126.9 101.6C126.7 101.6 126.7 101.7 126.8 101.9C126.9 102 127.2 102.2 127.4 102.2C127.6 102.2 127.6 102.1 127.5 101.9C127.4 101.7 127.1 101.6 126.9 101.6Z" fill="#4E7DE4"/>
<path d="M115.8 100.7C115.6 100.7 115.6 100.8 115.7 101C115.8 101.1 116.1 101.3 116.3 101.3C116.5 101.3 116.5 101.2 116.4 101C116.2 100.8 115.9 100.7 115.8 100.7Z" fill="#4E7DE4"/>
<path d="M114.8 100.7C114.6 100.7 114.6 100.8 114.7 101C114.8 101.1 115.1 101.3 115.3 101.3C115.5 101.3 115.5 101.2 115.4 101C115.2 100.8 114.9 100.7 114.8 100.7Z" fill="#4E7DE4"/>
<path d="M113.8 100.7C113.6 100.7 113.6 100.8 113.7 101C113.8 101.1 114.1 101.3 114.3 101.3C114.5 101.3 114.5 101.2 114.4 101C114.2 100.8 114 100.7 113.8 100.7Z" fill="#4E7DE4"/>
<path d="M112.8 100.7C112.6 100.7 112.6 100.8 112.7 101C112.8 101.1 113.1 101.3 113.3 101.3C113.5 101.3 113.5 101.2 113.4 101C113.2 100.8 113 100.7 112.8 100.7Z" fill="#4E7DE4"/>
<path d="M111.8 100.7C111.6 100.7 111.6 100.8 111.7 101C111.8 101.1 112.1 101.3 112.3 101.3C112.5 101.3 112.5 101.2 112.4 101C112.2 100.8 112 100.7 111.8 100.7Z" fill="#4E7DE4"/>
<path d="M110.8 100.7C110.6 100.7 110.6 100.8 110.7 101C110.8 101.1 111.1 101.3 111.3 101.3C111.5 101.3 111.5 101.2 111.4 101C111.2 100.8 111 100.7 110.8 100.7Z" fill="#4E7DE4"/>
<path d="M109.8 100.7C109.6 100.7 109.6 100.8 109.7 101C109.8 101.1 110.1 101.3 110.3 101.3C110.5 101.3 110.5 101.2 110.4 101C110.3 100.8 110 100.7 109.8 100.7Z" fill="#4E7DE4"/>
<path d="M116.5 101.5C116.3 101.5 116.3 101.6 116.4 101.8C116.5 101.9 116.8 102.1 117 102.1C117.2 102.1 117.2 102 117.1 101.8C117 101.6 116.7 101.5 116.5 101.5Z" fill="#4E7DE4"/>
<path d="M115.5 101.5C115.3 101.5 115.3 101.6 115.4 101.8C115.5 101.9 115.8 102.1 116 102.1C116.2 102.1 116.2 102 116.1 101.8C116 101.6 115.7 101.5 115.5 101.5Z" fill="#4E7DE4"/>
<path d="M114.6 101.5C114.4 101.5 114.4 101.6 114.5 101.8C114.6 101.9 114.9 102.1 115.1 102.1C115.3 102.1 115.3 102 115.2 101.8C115 101.6 114.7 101.5 114.6 101.5Z" fill="#4E7DE4"/>
<path d="M113.6 101.5C113.4 101.5 113.4 101.6 113.5 101.8C113.6 101.9 113.9 102.1 114.1 102.1C114.3 102.1 114.3 102 114.2 101.8C114 101.6 113.7 101.5 113.6 101.5Z" fill="#4E7DE4"/>
<path d="M112.6 101.5C112.4 101.5 112.4 101.6 112.5 101.8C112.6 101.9 112.9 102.1 113.1 102.1C113.3 102.1 113.3 102 113.2 101.8C113 101.6 112.8 101.5 112.6 101.5Z" fill="#4E7DE4"/>
<path d="M111.6 101.5C111.4 101.5 111.4 101.6 111.5 101.8C111.6 101.9 111.9 102.1 112.1 102.1C112.3 102.1 112.3 102 112.2 101.8C112 101.6 111.8 101.5 111.6 101.5Z" fill="#4E7DE4"/>
<path d="M110.6 101.5C110.4 101.5 110.4 101.6 110.5 101.8C110.6 101.9 110.9 102.1 111.1 102.1C111.3 102.1 111.3 102 111.2 101.8C111 101.6 110.8 101.5 110.6 101.5Z" fill="#4E7DE4"/>
<path d="M108.9 100.7C108.7 100.7 108.7 100.8 108.8 101C108.9 101.1 109.2 101.3 109.4 101.3C109.6 101.3 109.6 101.2 109.5 101C109.3 100.8 109.1 100.7 108.9 100.7Z" fill="#4E7DE4"/>
<path d="M109.7 101.5C109.5 101.5 109.5 101.6 109.6 101.8C109.7 101.9 110 102.1 110.2 102.1C110.4 102.1 110.4 102 110.3 101.8C110.1 101.6 109.8 101.5 109.7 101.5Z" fill="#4E7DE4"/>
<path d="M107.9 100.7C107.7 100.7 107.7 100.8 107.8 101C107.9 101.1 108.2 101.3 108.4 101.3C108.6 101.3 108.6 101.2 108.5 101C108.4 100.8 108.1 100.7 107.9 100.7Z" fill="#4E7DE4"/>
<path d="M108.7 101.5C108.5 101.5 108.5 101.6 108.6 101.8C108.7 101.9 109 102.1 109.2 102.1C109.4 102.1 109.4 102 109.3 101.8C109.1 101.6 108.9 101.5 108.7 101.5Z" fill="#4E7DE4"/>
<path d="M146.2 28.7H118.6C115.8 28.7 113.1 30.7 112.7 33.2L102.8 95.7C102.4 98.2 104.4 100.2 107.2 100.2L134.8 100.3C137.6 100.3 140.3 98.3 140.7 95.8L150.6 33.2C151.1 30.8 149.1 28.7 146.2 28.7Z" fill="#4619D9"/>
<path d="M104.8 97.9C105.3 98.4 106.1 98.7 107 98.7H110.8H116.2H121.2H134.6C135.8 98.7 136.9 98.2 137.8 97.5C138.6 96.9 139.1 96 139.3 95.2L140 90.5L141.5 80.9L144.4 62.8L149.2 32.7C149.3 32.2 149.3 31.6 148.8 31C148.7 30.9 148.6 30.8 148.4 30.7C147.9 30.4 147.3 30.2 146.6 30.2H143.6H140.5H123.5H121.4H119.1C118.1 30.2 117.2 30.5 116.4 31C115.4 31.7 114.6 32.6 114.5 33.7L113.9 37.3L106.4 85L104.6 96.2C104.3 96.7 104.3 97.4 104.8 97.9Z" fill="#9872FF"/>
<path d="M125.4 30.7C124.8 31.1 124.7 31.8 125 32.2C125.4 32.6 126.1 32.5 126.7 32.1C127.3 31.7 127.4 31 127.1 30.6C126.8 30.2 126 30.3 125.4 30.7Z" fill="#00045B"/>
<path d="M125.6 30.9C125.2 31.2 125 31.7 125.3 32C125.6 32.3 126.1 32.2 126.6 31.9C127 31.6 127.2 31.1 126.9 30.8C126.6 30.5 126 30.6 125.6 30.9Z" fill="#4E7DE4"/>
<path d="M137.3 30.7C137.3 30.7 137.2 30.7 137.3 30.7C137.2 30.7 137.2 30.7 137.3 30.7H129.3C129.1 30.7 128.9 30.8 128.7 30.9C128.3 31.2 128.2 31.6 128.4 31.8C128.5 31.9 128.6 31.9 128.6 31.9H128.7H128.9H136.6C136.8 31.9 137.1 31.8 137.3 31.7C137.5 31.5 137.7 31.3 137.7 31.1C137.7 31 137.7 30.9 137.6 30.8C137.5 30.7 137.4 30.7 137.3 30.7Z" fill="#4E7DE4"/>
<path d="M129.9 31.1C129.7 31.1 129.5 31.2 129.3 31.3C129.1 31.5 128.9 31.7 128.9 31.9H136.6C136.8 31.9 137.1 31.8 137.3 31.7C137.5 31.5 137.7 31.3 137.7 31.1H129.9C129.9 31.1 130 31.1 129.9 31.1Z" fill="#00045B"/>
<path opacity="0.2" d="M125.5 31.3C125.3 31.4 125.3 31.6 125.4 31.7C125.5 31.8 125.7 31.8 125.9 31.6C126.1 31.5 126.1 31.3 126 31.2C126 31.1 125.7 31.1 125.5 31.3Z" fill="#DBE1EE"/>
<path opacity="0.2" d="M126.3 31C126.2 31.1 126.2 31.2 126.2 31.2C126.3 31.3 126.4 31.2 126.5 31.2C126.6 31.1 126.6 31 126.6 31C126.5 31 126.4 31 126.3 31Z" fill="#DBE1EE"/>
<path d="M123.8 100.9C123.8 100.8 123.7 100.8 123.6 100.8H119.1C119 100.8 118.9 101 119 101.1L119.6 101.8C119.6 101.9 119.7 101.9 119.8 101.9H124.3C124.4 101.9 124.5 101.7 124.4 101.6L123.8 100.9Z" fill="#00228D"/>
<path d="M108.4 95.6H137L138 89H109.4L108.4 95.6Z" fill="#3011CC"/>
<path d="M135.9 67.3H142.2L146.8 40.3H140.6L135.9 67.3Z" fill="#FF1D52"/>
<path d="M109.8 86.3H122L123.7 75H111.5L109.8 86.3Z" fill="#FF1D52"/>
<path d="M115.6 46H121.7L122.6 40.3H116.4L115.6 46Z" fill="#00045B"/>
<path d="M122.6 46H128.7L129.5 40.3H123.4L122.6 46Z" fill="white"/>
<path d="M114.6 52.4H120.8L121.6 46.7H115.5L114.6 52.4Z" fill="white"/>
<path d="M133.3 80.3H139.4L140.3 74.6H134.2L133.3 80.3Z" fill="#3011CC"/>
<path d="M128.6 52.4H134.7L135.6 46.7H129.5L128.6 52.4Z" fill="#DED3FF"/>
<path d="M113.8 58.8H119.9L120.7 53.1H114.6L113.8 58.8Z" fill="#FF1D52"/>
<path d="M132.5 86.7H138.6L139.4 81H133.3L132.5 86.7Z" fill="#DED3FF"/>
<path d="M127.7 58.8H133.8L134.7 53.1H128.6L127.7 58.8Z" fill="#3011CC"/>
<path d="M125.8 80.5H132L132.8 74.8H126.7L125.8 80.5Z" fill="#C5D5F8"/>
<path d="M125 86.9H131.1L131.9 81.2H125.8L125 86.9Z" fill="#3011CC"/>
<path opacity="0.3" d="M135.5 28.7L106.8 101.7C106.6 101.5 106.3 101.4 106.1 101.2L104 99.1C103.1 98.3 102.6 97.1 102.8 95.8L107.8 64L121.6 28.7H135.5Z" fill="#E0E9F4"/>
<path opacity="0.3" d="M149.3 29.8L120.6 102.5H113.8L142.9 28.7H146.2C147.5 28.7 148.6 29.1 149.3 29.8Z" fill="#E0E9F4"/>
<path d="M135.9 23.3L131.8 49.6C131.6 50.7 130.6 51.5 129.5 51.5H98C96.9 51.5 96.2 50.6 96.3 49.6L100.3 24.2L100.5 22.9C100.6 22.1 101.3 21.5 102.1 21.5H134.3C135.3 21.4 136.1 22.3 135.9 23.3Z" fill="url(#paint0_linear)"/>
<path d="M135.9 23.3L135.8 24.1H100.4L100.6 22.8C100.7 22 101.4 21.4 102.2 21.4H134.3C135.3 21.4 136.1 22.3 135.9 23.3Z" fill="#3011CC"/>
<path d="M133.2 22.3L134.1 23.4C134.1 23.4 134.1 23.5 134.1 23.6C134 23.6 134 23.6 133.9 23.6L133 22.5C133 22.5 133 22.4 133 22.3C133.1 22.3 133.2 22.3 133.2 22.3Z" fill="white"/>
<path d="M134.2 22.3C134.3 22.3 134.3 22.3 134.4 22.3C134.4 22.3 134.4 22.4 134.4 22.5L133.1 23.6C133 23.6 133 23.6 132.9 23.6C132.9 23.6 132.9 23.5 132.9 23.4L134.2 22.3Z" fill="white"/>
<path d="M130.7 22.9C130.6 23.3 130.9 23.7 131.3 23.7C131.7 23.7 132.1 23.4 132.2 22.9C132.3 22.5 132 22.1 131.6 22.1C131.1 22.2 130.7 22.5 130.7 22.9ZM130.8 22.9C130.9 22.6 131.2 22.3 131.5 22.3C131.8 22.3 132 22.6 132 22.9C131.9 23.2 131.6 23.5 131.3 23.5C131 23.5 130.8 23.3 130.8 22.9Z" fill="white"/>
<path d="M128.5 23.4H129.9C129.9 23.4 130 23.4 130 23.5L129.9 23.6H128.5C128.4 23.6 128.3 23.5 128.5 23.4C128.4 23.4 128.4 23.4 128.5 23.4Z" fill="white"/>
<path d="M128.2 37.3L103.4 37.2C103 37.2 102.6 37.5 102.5 37.9L101.8 42C101.8 42.2 101.8 42.4 102 42.5C102.1 42.6 102.3 42.7 102.4 42.7H127.3C127.7 42.7 128.1 42.4 128.1 42L128.7 38C128.7 37.8 128.7 37.6 128.6 37.5C128.5 37.3 128.4 37.3 128.2 37.3ZM127.9 42C127.9 42.3 127.6 42.5 127.3 42.5L102.4 42.4C102.3 42.4 102.2 42.4 102.1 42.3C102 42.2 102 42.1 102 42L102.7 37.9C102.7 37.6 103 37.4 103.3 37.4L128.1 37.5C128.2 37.5 128.3 37.6 128.4 37.6C128.5 37.7 128.5 37.8 128.5 37.9L127.9 42Z" fill="#3011CC"/>
<path fill-rule="evenodd" clip-rule="evenodd" d="M122.3 38.6L125.7 38.5L125.8 37.9L122.4 38L122.3 38.6Z" fill="#3011CC"/>
<path fill-rule="evenodd" clip-rule="evenodd" d="M120.4 39.7L125.6 39.6L125.7 39L120.5 39.1L120.4 39.7Z" fill="#3011CC"/>
<path fill-rule="evenodd" clip-rule="evenodd" d="M116.2 38.6H121L121.1 38L116.3 38.1L116.2 38.6Z" fill="#3011CC"/>
<path fill-rule="evenodd" clip-rule="evenodd" d="M113 38.1L112.9 38.7H115.5L115.6 38.1H113Z" fill="#3011CC"/>
<path fill-rule="evenodd" clip-rule="evenodd" d="M109.1 38.7H112.1L112.2 38.1H109.2L109.1 38.7Z" fill="#3011CC"/>
<path fill-rule="evenodd" clip-rule="evenodd" d="M110.6 39.2L110.5 39.7H115.9L116 39.1L110.6 39.2Z" fill="#3011CC"/>
<path fill-rule="evenodd" clip-rule="evenodd" d="M122 40.1L121.9 40.7H125.4L125.5 40.1H122Z" fill="#3011CC"/>
<path fill-rule="evenodd" clip-rule="evenodd" d="M115 41.8H125.2L125.3 41.1L115.1 41.2L115 41.8Z" fill="#3011CC"/>
<path fill-rule="evenodd" clip-rule="evenodd" d="M114.6 40.1L114.5 40.7H120.6L120.7 40.1H114.6Z" fill="#3011CC"/>
<path fill-rule="evenodd" clip-rule="evenodd" d="M110.4 40.2L110.3 40.8L113.5 40.7L113.6 40.2H110.4Z" fill="#3011CC"/>
<path fill-rule="evenodd" clip-rule="evenodd" d="M105.4 40.8H109.2L109.3 40.2H105.5L105.4 40.8Z" fill="#3011CC"/>
<path fill-rule="evenodd" clip-rule="evenodd" d="M108.6 41.8H114.1L114.2 41.2H108.7L108.6 41.8Z" fill="#3011CC"/>
<path fill-rule="evenodd" clip-rule="evenodd" d="M117 39.7H119.5L119.6 39.1H117.1L117 39.7Z" fill="#3011CC"/>
<path d="M127.1 44.1H102.2C101.8 44.1 101.4 44.4 101.3 44.8L100.6 48.9C100.6 49.1 100.6 49.3 100.8 49.4C100.9 49.5 101.1 49.6 101.3 49.6L126.3 49.5C126.7 49.5 127.1 49.2 127.1 48.8L127.7 44.7C127.7 44.5 127.7 44.3 127.6 44.2C127.5 44.2 127.3 44.1 127.1 44.1ZM126.8 48.9C126.8 49.2 126.5 49.4 126.2 49.4H101.2C101.1 49.4 101 49.4 100.9 49.3C100.8 49.2 100.8 49.1 100.8 49L101.5 44.9C101.5 44.6 101.8 44.4 102.1 44.4H127C127.1 44.4 127.2 44.5 127.3 44.5C127.4 44.6 127.4 44.7 127.4 44.8L126.8 48.9Z" fill="#3011CC"/>
<path d="M116 30.1L115.3 35H117.4L118.1 30.2L116 30.1Z" fill="#3011CC"/>
<path d="M119.9 28.2L118.9 35H120.9L121.8 28.4L119.9 28.2Z" fill="#FF1D52"/>
<path d="M123 29.3L122.2 34.9H124L124.8 29.4L123 29.3Z" fill="white"/>
<path d="M126.5 27.3L125.3 34.9H126.9L128.1 27.3H126.5Z" fill="#3011CC"/>
<path d="M128.1 34.9H129.7L131.2 24.7H129.6L128.1 34.9Z" fill="#FF1D52"/>
<path fill-rule="evenodd" clip-rule="evenodd" d="M103.6 46.2L103.5 46.7H106.5L106.7 46.1L103.6 46.2Z" fill="#3011CC"/>
<path fill-rule="evenodd" clip-rule="evenodd" d="M107.9 45.7H115.9L116 45.1L108 45.2L107.9 45.7Z" fill="#3011CC"/>
<path fill-rule="evenodd" clip-rule="evenodd" d="M118.1 45.7H123.3L123.4 45.1H118.2L118.1 45.7Z" fill="#3011CC"/>
<path fill-rule="evenodd" clip-rule="evenodd" d="M116.9 46.6L122.7 46.7L122.8 46.1H117L116.9 46.6Z" fill="#3011CC"/>
<path fill-rule="evenodd" clip-rule="evenodd" d="M118.6 47.1L118.5 47.6H122.5L122.6 47.1H118.6Z" fill="#3011CC"/>
<path fill-rule="evenodd" clip-rule="evenodd" d="M111.4 46.6H115.7L115.8 46.1H111.5L111.4 46.6Z" fill="#3011CC"/>
<path fill-rule="evenodd" clip-rule="evenodd" d="M110.2 47.6H117.6L117.7 47.1H110.3L110.2 47.6Z" fill="#3011CC"/>
<path fill-rule="evenodd" clip-rule="evenodd" d="M107.5 47.6H109.5L109.6 47.1L107.6 47L107.5 47.6Z" fill="#3011CC"/>
<path fill-rule="evenodd" clip-rule="evenodd" d="M115.6 48L115.5 48.6H119.2L119.3 48H115.6Z" fill="#3011CC"/>
<path fill-rule="evenodd" clip-rule="evenodd" d="M108.2 48.6H114.9L115 48H108.3L108.2 48.6Z" fill="#3011CC"/>
<path fill-rule="evenodd" clip-rule="evenodd" d="M105.4 48L105.3 48.6H107.4L107.5 48H105.4Z" fill="#3011CC"/>
<path d="M107.5 32.9C107.2 32.9 106.9 32.8 106.7 32.7L105.6 34.5C107.1 35.2 109.1 35 110.7 33.9C111.5 33.4 112 32.7 112.3 32L110.1 31.5C109.6 32.3 108.5 32.9 107.5 32.9Z" fill="white"/>
<path d="M111.3 27.7C109.7 26.1 106.9 26 104.8 27.4C102.8 28.8 102.4 31.3 103.9 32.9L104 33L105.8 31.7C105.4 31.3 105.2 30.8 105.3 30.2C105.5 29.1 106.6 28.3 107.9 28.3C108.8 28.3 109.5 28.8 109.8 29.5L112 28.7C111.8 28.4 111.6 28.1 111.3 27.7Z" fill="#FF1D52"/>
<path d="M109.8 29.6C109.9 29.9 109.9 30.2 109.9 30.5C109.9 30.6 109.8 30.8 109.8 30.9L112 31.4C112.4 30.5 112.4 29.6 112.1 28.8L109.8 29.6Z" fill="#FF8D00"/>
<path d="M104 33.1C104.4 33.5 104.8 33.8 105.3 34L106.4 32.2C106.2 32.1 105.9 31.9 105.8 31.8L104 33.1Z" fill="#3011CC"/>
<path d="M122.8 63.8L119.7 83.6C119.5 84.6 118.6 85.4 117.6 85.4H84.5C83.5 85.4 82.8 84.6 83 83.6L86 64.6L86.2 63.4C86.3 62.7 87 62.1 87.7 62.1H121.3C122.2 62.1 122.9 62.9 122.8 63.8Z" fill="url(#paint1_linear)"/>
<path d="M122.8 63.8L122.7 64.6H85.8999L86.0999 63.4C86.1999 62.7 86.8999 62.1 87.5999 62.1H121.3C122.2 62.1 122.9 62.9 122.8 63.8Z" fill="#3011CC"/>
<path d="M120.3 62.9L121.2 63.9V64H121.1L120.2 63V62.9C120.2 62.8 120.3 62.8 120.3 62.9Z" fill="white"/>
<path d="M121.2 62.9H121.3V63L120.1 64H120V63.9L121.2 62.9Z" fill="white"/>
<path d="M117.9 63.4C117.8 63.8 118.1 64.1 118.5 64.1C118.9 64.1 119.2 63.8 119.3 63.4C119.4 63 119.1 62.7 118.7 62.7C118.3 62.7 118 63.1 117.9 63.4ZM118.1 63.4C118.1 63.1 118.4 62.9 118.7 62.9C119 62.9 119.2 63.1 119.2 63.4C119.2 63.7 118.9 63.9 118.6 63.9C118.2 64 118 63.7 118.1 63.4Z" fill="white"/>
<path d="M115.9 63.9H117.2C117.2 63.9 117.3 63.9 117.3 64C117.3 64 117.3 64.1 117.2 64.1H115.9C115.8 64 115.8 64 115.9 63.9C115.8 63.9 115.8 63.9 115.9 63.9Z" fill="white"/>
<path d="M84.8999 83L100.1 83.1L100.5 80.4L85.2999 80.5L84.8999 83Z" fill="#00C2F2"/>
<path d="M97.2998 82.2H98.7998L98.8998 81.5H97.3998L97.2998 82.2Z" fill="white"/>
<path d="M94.7998 82.2H96.1998L96.2998 81.5H94.8998L94.7998 82.2Z" fill="white"/>
<path d="M90.7998 82.2H94.0998L94.1998 81.5H90.8998L90.7998 82.2Z" fill="white"/>
<path d="M93.4001 66.1L93.6002 66.8C93.7002 66.8 93.8001 66.7 93.9001 66.7C94.3001 66.7 94.6002 67 94.6002 67.3L95.5001 67.1C95.5001 66.8 95.4001 66.5 95.2001 66.3C94.8001 65.9 94.1001 65.8 93.4001 66.1Z" fill="#DED3FF"/>
<path d="M93.7001 68.4C93.2001 68.4 92.9001 68 93.0001 67.6C93.0001 67.4 93.2001 67.2 93.4001 67L92.9001 66.4C92.1001 67 92.0001 68.1 92.6001 68.7C93.2001 69.3 94.3001 69.3 95.0001 68.7C95.2001 68.6 95.3001 68.4 95.4001 68.3L94.7001 68C94.4001 68.2 94.1001 68.4 93.7001 68.4Z" fill="#00C2F2"/>
<path d="M92.9001 66.4L93.4001 67C93.5001 66.9 93.6001 66.9 93.7001 66.8L93.5001 66.1C93.2001 66.1 93.0001 66.2 92.9001 66.4Z" fill="#F1EEFF"/>
<path d="M94.7001 67.4C94.7001 67.5 94.7001 67.5 94.7001 67.6C94.7001 67.7 94.6001 67.9 94.6001 68L95.3001 68.3C95.5001 68 95.6001 67.6 95.6001 67.2L94.7001 67.4Z" fill="white"/>
<path d="M93.4 70.8C93.2 70.8 93 70.8 92.8 70.9L93 71.7C93.3 71.6 93.6 71.7 93.9 71.9C94.2 72.2 94.1001 72.7 93.7001 73C93.5001 73.2 93.3 73.2 93 73.2L92.9 74C92.9 74 92.9 74 93 74C93.9 74 94.8 73.3 95 72.4C95 71.5 94.3 70.8 93.4 70.8Z" fill="#00C2F2"/>
<path d="M92.5001 72L91.8001 71.6C91.6001 71.9 91.4001 72.2 91.4001 72.5C91.3001 73.2 91.6001 73.7 92.2001 74L92.6001 73.3C92.5001 73.3 92.4001 73.2 92.4001 73.1C92.2001 72.7 92.2001 72.3 92.5001 72Z" fill="#DED3FF"/>
<path d="M91.8 71.6L92.5 72L92.6001 71.9C92.7001 71.8 92.8 71.7 93 71.7L92.8 70.9C92.4 71 92.1 71.3 91.8 71.6Z" fill="white"/>
<path d="M92.2 73.9C92.4 74 92.5999 74 92.7999 74L92.8999 73.2C92.7999 73.2 92.7 73.2 92.6 73.1L92.2 73.9Z" fill="#F1EEFF"/>
<path d="M100.6 67.8C98.7 69.1 97.7 71 97.7 73C97.6 76.6 100.8 79 104.5 78.6L104.8 72.7L100.6 67.8Z" fill="#00C2F2"/>
<path d="M104.5 78.6C105.8 78.5 106.9 78 108 77.3L104.8 72.7L104.5 78.6Z" fill="white"/>
<path d="M107.8 67L104.8 72.7L108 77.3C109 76.6 109.7 75.8 110.3 74.8C111.8 71.8 110.8 68.4 107.8 67Z" fill="#DED3FF"/>
<path d="M100.6 67.8L104.8 72.7L107.8 67C105.5 65.9 102.9 66.2 100.6 67.8Z" fill="#F1EEFF"/>
<path d="M117.8 82.3L117.4 81.9V81.8H117.5L117.9 82.3V82.4L117.3 82.9C117.3 82.9 117.3 82.9 117.2 82.9C117.2 82.9 117.2 82.9 117.1 82.9V82.8L117.8 82.3Z" fill="white"/>
<path d="M117.3 82.3L116.9 81.9V81.8H117L117.4 82.3V82.4L116.8 82.9C116.8 82.9 116.8 82.9 116.7 82.9C116.6 82.9 116.7 82.9 116.6 82.9V82.8L117.3 82.3Z" fill="white"/>
<path d="M107 81.7H115.8C115.9 81.7 115.9 81.7 115.9 81.8C115.9 81.9 115.8 81.9 115.8 81.9H107C106.9 81.9 106.9 81.9 106.9 81.8C106.9 81.8 106.9 81.7 107 81.7Z" fill="white"/>
<path d="M111.1 82.2H115.7C115.8 82.2 115.8 82.2 115.8 82.3C115.8 82.4 115.7 82.4 115.7 82.4H111.1C111 82.4 111 82.4 111 82.3C111 82.2 111.1 82.2 111.1 82.2Z" fill="white"/>
<path d="M111 82.9H115.6C115.7 82.9 115.7 82.9 115.7 83C115.7 83.1 115.6 83.1 115.6 83.1H111C110.9 83.1 110.9 83.1 110.9 83C110.9 82.9 111 82.9 111 82.9Z" fill="white"/>
<path d="M78.6001 31.7L81.8 26.5L78.7001 24.2C79.3001 22.5 79.6 20.7 79.5 18.9L81.7001 19.2L83.1001 17.7L81.7001 11.8L77.9 12.4C77.1 10.8 76.1001 9.30001 74.7001 8.10001L76.4 4.60001L71.2001 1.40001L69.7001 2.90001L69 4.5C67.3 3.9 65.5001 3.60001 63.7001 3.70001L62.5 0L56.6001 1.40001L55.1001 2.90001L57.2001 5.20001C55.6001 6.00001 54.1 7.00001 52.9 8.40001L49.4 6.70001L47.9 8.20001L46.2001 11.9L49.3 14.2C48.7 15.9 48.4 17.7 48.5 19.5L44.8 20.7L43.3 22.2L46.3 26.6L50.1 26C50.9 27.6 51.9 29.1 53.3 30.3L51.6001 33.8L55.3 38.5L56.8 37L59.1001 33.9C60.8001 34.5 62.6 34.8 64.4 34.7L65.6001 38.4L70 38.5L71.5 37L70.9 33.2C72.5 32.4 74.0001 31.4 75.2001 30L77.1001 33.2L78.6001 31.7ZM58.3 28.7C53.1 25.5 51.5001 18.8 54.6001 13.6C57.8001 8.40001 64.5001 6.80001 69.7001 9.90001C74.9001 13.1 76.5 19.8 73.4 25C70.2 30.2 63.5 31.8 58.3 28.7Z" fill="#DED3FF"/>
<path d="M77.1001 33.2L80.3 28L77.2001 25.7C77.8001 24 78.1 22.2 78 20.4L81.7001 19.2L80.3 13.3L76.5 13.9C75.7 12.3 74.7 10.8 73.3 9.60001L75 6.10001L69.8 2.90001L67.5 6C65.8 5.4 64.0001 5.10001 62.2001 5.20001L61 1.5L55.1001 2.90001L55.7001 6.70001C54.1001 7.50001 52.6 8.50001 51.4 9.90001L47.9 8.20001L44.7001 13.4L47.8 15.7C47.2 17.4 46.9 19.2 47 21L43.3 22.2L44.7001 28.1L48.5 27.5C49.3 29.1 50.3001 30.6 51.7001 31.8L50 35.3L55.2001 38.5L57.5 35.4C59.2 36 61 36.3 62.8 36.2L64 39.9L69.9 38.5L69.3 34.7C70.9 33.9 72.4001 32.9 73.6001 31.5L77.1001 33.2ZM56.8 30.2C51.6 27 50.0001 20.3 53.1001 15.1C56.3001 9.90001 63.0001 8.30001 68.2001 11.4C73.4001 14.6 75 21.3 71.9 26.5C68.7 31.7 61.9 33.3 56.8 30.2Z" fill="#F1EEFF"/>
<defs>
<linearGradient id="paint0_linear" x1="96.3866" y1="36.4692" x2="135.947" y2="36.4692" gradientUnits="userSpaceOnUse">
<stop stop-color="#9671FF"/>
<stop offset="1" stop-color="#7A4FFF"/>
</linearGradient>
<linearGradient id="paint1_linear" x1="82.905" y1="73.6901" x2="122.787" y2="73.6901" gradientUnits="userSpaceOnUse">
<stop stop-color="#9671FF"/>
<stop offset="1" stop-color="#7A4FFF"/>
</linearGradient>
</defs>
</svg>
