<svg width="315" height="244" viewBox="0 0 315 244" fill="none" xmlns="http://www.w3.org/2000/svg">
<path d="M0.105614 0C0.105614 0 -4.29438 57.1 43.7056 66.8C91.7056 76.5 140.206 70.2 132.106 120.9C123.506 174.6 153.706 220.9 196.206 206.4C243.806 190.3 314.806 243.2 314.806 243.2V0H0.105614Z" fill="#F1EEFF"/>
<path d="M31.6056 0C31.6056 0 27.2056 57.1 75.2056 66.8C123.206 76.5 181.406 53.8 173.306 104.5C164.706 158.2 188.306 204.2 230.806 189.7C278.306 173.5 314.706 203.3 314.706 203.3L314.806 0H31.6056Z" fill="url(#paint0_linear)"/>
<defs>
<linearGradient id="paint0_linear" x1="31.4862" y1="101.652" x2="314.793" y2="101.652" gradientUnits="userSpaceOnUse">
<stop stop-color="#9671FF"/>
<stop offset="1" stop-color="#7A4FFF"/>
</linearGradient>
</defs>
</svg>
