<svg width="52" height="10" viewBox="0 0 52 10" fill="none" xmlns="http://www.w3.org/2000/svg">
<path d="M50.2 1.3C49.3 0.5 48.2 0 46.9 0H5C2.2 0 0 2.2 0 5C0 7.8 2.2 10 5 10H46.9C48.2 10 49.4 9.5 50.3 8.7C51.3 7.8 51.9 6.5 51.9 5C51.9 3.6 51.3 2.2 50.2 1.3Z" fill="#00E18E"/>
<path d="M7.60001 5.1V4.8H8.5V5.6C8.4 5.7 8.20001 5.8 8.10001 5.9C7.90001 6 7.80001 6 7.60001 6C7.40001 6 7.2 6 7 5.9C6.8 5.8 6.70001 5.7 6.60001 5.5C6.50001 5.3 6.5 5.1 6.5 4.9C6.5 4.7 6.50001 4.5 6.60001 4.3C6.70001 4.1 6.8 4 7 3.9C7.2 3.8 7.40001 3.8 7.60001 3.8C7.80001 3.8 7.9 3.8 8 3.9C8.1 4 8.19999 4 8.29999 4.1C8.39999 4.2 8.4 4.3 8.5 4.5L8.19998 4.6C8.19998 4.5 8.10001 4.4 8.10001 4.3C8.10001 4.2 7.99999 4.2 7.89999 4.1C7.79999 4.1 7.70001 4 7.60001 4C7.50001 4 7.39999 4 7.29999 4.1C7.19999 4.1 7.10001 4.2 7.10001 4.3C7.00001 4.4 7 4.4 7 4.5C6.9 4.6 6.89999 4.8 6.89999 4.9C6.89999 5.1 6.9 5.3 7 5.4C7.1 5.5 7.19999 5.6 7.29999 5.7C7.39999 5.8 7.59998 5.8 7.69998 5.8C7.79998 5.8 7.90001 5.8 8.10001 5.7C8.20001 5.7 8.29999 5.6 8.39999 5.5V5.1H7.60001Z" fill="white"/>
<path d="M10.0999 5.4H10.3999C10.3999 5.6 10.2999 5.7 10.1999 5.8C10.0999 5.9 9.89989 5.9 9.69989 5.9C9.49989 5.9 9.29991 5.8 9.09991 5.7C8.99991 5.6 8.8999 5.4 8.8999 5.1C8.8999 4.8 8.99991 4.6 9.09991 4.5C9.19991 4.4 9.39991 4.3 9.59991 4.3C9.79991 4.3 9.99991 4.4 10.0999 4.5C10.1999 4.6 10.2999 4.9 10.2999 5.1C10.2999 5.1 10.2999 5.1 10.2999 5.2H9.09991C9.09991 5.4 9.19989 5.5 9.19989 5.6C9.29989 5.7 9.39991 5.7 9.49991 5.7C9.59991 5.7 9.6999 5.7 9.7999 5.6C9.9999 5.6 9.99991 5.6 10.0999 5.4ZM9.19989 5H10.0999C10.0999 4.9 10.0999 4.8 9.99991 4.7C9.89991 4.6 9.79989 4.5 9.69989 4.5C9.59989 4.5 9.4999 4.5 9.3999 4.6C9.2999 4.7 9.19989 4.9 9.19989 5Z" fill="white"/>
<path d="M11.3001 5.7V5.9C11.2001 5.9 11.2001 5.9 11.1001 5.9C11.0001 5.9 10.9001 5.9 10.9001 5.9C10.8001 5.9 10.8001 5.8 10.8001 5.8C10.8001 5.7 10.8001 5.6 10.8001 5.5V4.6H10.6001V4.4H10.8001V4L11.1001 3.8V4.4H11.4001V4.6H11.1001V5.5C11.1001 5.6 11.1001 5.6 11.1001 5.6C11.1001 5.6 11.1001 5.6 11.1001 5.7H11.2001C11.2001 5.7 11.2001 5.7 11.3001 5.7Z" fill="white"/>
<path d="M12.3999 6V3.8H12.7999L13.2999 5.4C13.2999 5.5 13.3999 5.7 13.3999 5.7C13.3999 5.6 13.4999 5.5 13.4999 5.3L13.9999 3.8H14.3999V6H14.0999V4.2L13.4999 6H13.1999L12.5999 4.1V6H12.3999Z" fill="white"/>
<path d="M14.8999 5.2C14.8999 4.9 14.9999 4.7 15.0999 4.5C15.1999 4.4 15.3999 4.3 15.5999 4.3C15.7999 4.3 15.9999 4.4 16.0999 4.5C16.1999 4.6 16.2999 4.8 16.2999 5.1C16.2999 5.3 16.2999 5.5 16.1999 5.6C16.0999 5.7 15.9999 5.8 15.8999 5.9C15.7999 6 15.6999 6 15.4999 6C15.2999 6 15.0999 5.9 14.9999 5.8C14.8999 5.6 14.8999 5.4 14.8999 5.2ZM15.1999 5.2C15.1999 5.4 15.1999 5.6 15.2999 5.7C15.3999 5.8 15.4999 5.9 15.5999 5.9C15.6999 5.9 15.7999 5.8 15.8999 5.7C15.9999 5.6 15.9999 5.4 15.9999 5.2C15.9999 5 15.9999 4.9 15.8999 4.8C15.7999 4.7 15.6999 4.6 15.5999 4.6C15.4999 4.6 15.3999 4.7 15.2999 4.8C15.1999 4.8 15.1999 5 15.1999 5.2Z" fill="white"/>
<path d="M16.7 6V4.4H16.9V4.6C17 4.5 17 4.4 17.1 4.4C17.2 4.4 17.2 4.3 17.3 4.3C17.4 4.3 17.5 4.3 17.6 4.4L17.5 4.7C17.4 4.7 17.4 4.6 17.3 4.6C17.2 4.6 17.2 4.6 17.1 4.7L17 4.8C17 4.9 17 5 17 5.1V6H16.7Z" fill="white"/>
<path d="M18.8001 5.4H19.1001C19.1001 5.6 19.0001 5.7 18.9001 5.8C18.8001 5.9 18.6001 5.9 18.4001 5.9C18.2001 5.9 18.0001 5.8 17.8001 5.7C17.7001 5.6 17.6001 5.4 17.6001 5.1C17.6001 4.8 17.7001 4.6 17.8001 4.5C17.9001 4.4 18.1001 4.3 18.3001 4.3C18.5001 4.3 18.7001 4.4 18.8001 4.5C18.9001 4.6 19.0001 4.9 19.0001 5.1C19.0001 5.1 19.0001 5.1 19.0001 5.2H17.8001C17.8001 5.4 17.9001 5.5 17.9001 5.6C18.0001 5.7 18.1001 5.7 18.2001 5.7C18.3001 5.7 18.4001 5.7 18.5001 5.6C18.7001 5.6 18.8001 5.6 18.8001 5.4ZM17.9001 5H18.8001C18.8001 4.9 18.8001 4.8 18.7001 4.7C18.6001 4.6 18.5001 4.5 18.4001 4.5C18.3001 4.5 18.2001 4.5 18.1001 4.6C18.0001 4.8 17.9001 4.9 17.9001 5Z" fill="white"/>
<path d="M46.5 6C45.7 6 45 5.3 45 4.5C45 3.7 45.7 3 46.5 3C47.3 3 48 3.7 48 4.5C48 5.3 47.4 6 46.5 6ZM46.5 3.3C45.8 3.3 45.2 3.9 45.2 4.6C45.2 5.3 45.8 5.9 46.5 5.9C47.2 5.9 47.8 5.3 47.8 4.6C47.8 3.8 47.2 3.3 46.5 3.3Z" fill="white"/>
<path d="M44.3 7.1L44.2 6.9L45.6 5.5L45.7 5.7L44.3 7.1Z" fill="white"/>
</svg>
