<svg width="122" height="74" viewBox="0 0 122 74" fill="none" xmlns="http://www.w3.org/2000/svg">
<path d="M110.42 13.8266C111.42 13.6266 111.92 13.4266 111.92 13.4266C112.12 13.3266 112.22 13.1266 112.22 12.9266C112.12 12.7266 111.92 12.5266 111.72 12.6266C111.72 12.6266 111.22 12.7266 110.22 13.0266C110.02 13.0266 109.92 13.3266 109.92 13.5266C110.02 13.8266 110.22 13.9266 110.42 13.8266Z" fill="#FF8D00"/>
<path d="M53.7201 39.3266C53.5201 39.3266 53.3201 39.2266 53.3201 38.9266C53.3201 38.7266 53.4201 38.5266 53.7201 38.5266C54.7201 38.4266 55.7201 38.3266 56.7201 38.1266C56.9201 38.1266 57.1201 38.2266 57.1201 38.4266C57.1201 38.6266 57.0201 38.8266 56.8201 38.9266C55.7201 39.1266 54.7201 39.2266 53.7201 39.3266ZM59.3201 37.9266C59.2201 37.7266 59.4201 37.5266 59.6201 37.4266C60.5201 37.1266 61.5201 36.8266 62.5201 36.4266C62.7201 36.3266 62.9201 36.4266 63.0201 36.6266C63.1201 36.8266 63.0201 37.0266 62.8201 37.1266C61.8201 37.5266 60.8201 37.8266 59.9201 38.1266C59.5201 38.2266 59.3201 38.1266 59.3201 37.9266ZM65.0201 35.7266C64.9201 35.5266 65.0201 35.3266 65.2201 35.2266C66.1201 34.7266 67.0201 34.3266 67.9201 33.7266C68.1201 33.6266 68.3201 33.6266 68.4201 33.8266C68.5201 34.0266 68.5201 34.2266 68.3201 34.3266C67.4201 34.8266 66.5201 35.3266 65.6201 35.8266H65.5201C65.2201 35.9266 65.1201 35.8266 65.0201 35.7266ZM70.3201 32.5266C70.2201 32.3266 70.2201 32.1266 70.4201 32.0266C71.2201 31.4266 72.0201 30.8266 72.8201 30.2266C73.0201 30.1266 73.2201 30.1266 73.3201 30.3266C73.4201 30.5266 73.4201 30.7266 73.2201 30.8266C72.4201 31.5266 71.6201 32.1266 70.7201 32.7266C70.7201 32.7266 70.6201 32.8266 70.5201 32.8266C70.5201 32.7266 70.4201 32.7266 70.3201 32.5266ZM75.1201 28.7266C75.0201 28.5266 75.0201 28.3266 75.1201 28.2266C75.3201 28.0266 75.6201 27.8266 75.8201 27.5266C76.3201 27.0266 76.8201 26.5266 77.2201 26.1266C77.3201 25.9266 77.6201 25.9266 77.7201 26.1266C77.9201 26.2266 77.9201 26.5266 77.7201 26.6266C77.2201 27.1266 76.7201 27.6266 76.2201 28.1266C76.0201 28.3266 75.7201 28.6266 75.5201 28.8266C75.4201 28.8266 75.4201 28.9266 75.3201 28.9266C75.3201 28.9266 75.2201 28.8266 75.1201 28.7266ZM79.3201 24.3266C79.1201 24.2266 79.1201 23.9266 79.2201 23.8266C79.8201 23.0266 80.4201 22.2266 81.0201 21.3266C81.1201 21.1266 81.4201 21.1266 81.5201 21.2266C81.7201 21.3266 81.7201 21.6266 81.6201 21.7266C81.1201 22.5266 80.4201 23.4266 79.8201 24.2266C79.7201 24.3266 79.7201 24.3266 79.6201 24.3266C79.5201 24.4266 79.4201 24.4266 79.3201 24.3266ZM82.7201 19.2266C82.5201 19.1266 82.4201 18.9266 82.5201 18.7266C82.6201 18.5266 82.7201 18.2266 82.8201 18.0266C81.8201 18.0266 80.9201 18.0266 80.0201 18.0266C79.8201 18.0266 79.6201 17.8266 79.6201 17.6266C79.6201 17.4266 79.8201 17.2266 80.0201 17.2266C81.0201 17.2266 82.0201 17.2266 83.1201 17.2266H83.2201C83.4201 16.8266 83.5201 16.3266 83.7201 15.9266C83.8201 15.7266 84.0201 15.6266 84.2201 15.7266C84.4201 15.8266 84.5201 16.0266 84.4201 16.2266C84.1201 17.2266 83.7201 18.1266 83.2201 19.1266C83.1201 19.2266 83.0201 19.3266 82.9201 19.3266C82.9201 19.3266 82.8201 19.3266 82.7201 19.2266ZM101.42 15.7266C100.42 15.9266 99.4201 16.1266 98.4201 16.2266C98.2201 16.2266 98.0201 16.1266 98.0201 15.9266C98.0201 15.7266 98.1201 15.5266 98.3201 15.5266C99.3201 15.3266 100.32 15.1266 101.32 15.0266C101.52 15.0266 101.72 15.1266 101.72 15.3266C101.82 15.5266 101.62 15.7266 101.42 15.7266ZM104.02 14.8266C104.02 14.6266 104.12 14.4266 104.32 14.3266C105.42 14.1266 106.42 13.9266 107.32 13.7266C107.52 13.7266 107.72 13.8266 107.82 14.0266C107.82 14.2266 107.72 14.4266 107.52 14.5266C106.62 14.7266 105.62 14.9266 104.52 15.1266C104.22 15.2266 104.02 15.0266 104.02 14.8266ZM95.3201 16.7266C94.3201 16.9266 93.3201 17.0266 92.3201 17.1266C92.1201 17.1266 91.9201 17.0266 91.9201 16.8266C91.9201 16.6266 92.0201 16.4266 92.2201 16.4266C93.2201 16.3266 94.2201 16.1266 95.2201 16.0266C95.4201 16.0266 95.6201 16.1266 95.6201 16.3266C95.7201 16.5266 95.6201 16.7266 95.3201 16.7266C95.4201 16.7266 95.4201 16.7266 95.3201 16.7266ZM89.2201 17.5266C88.2201 17.6266 87.1201 17.7266 86.1201 17.8266C85.9201 17.8266 85.7201 17.7266 85.7201 17.4266C85.7201 17.2266 85.8201 17.0266 86.1201 17.0266C87.1201 16.9266 88.1201 16.8266 89.1201 16.7266C89.3201 16.7266 89.5201 16.8266 89.5201 17.0266C89.6201 17.3266 89.5201 17.5266 89.2201 17.5266C89.3201 17.5266 89.3201 17.5266 89.2201 17.5266ZM76.9201 17.9266C75.8201 17.8266 74.8201 17.7266 73.8201 17.5266C73.6201 17.5266 73.5201 17.3266 73.5201 17.0266C73.5201 16.8266 73.7201 16.7266 74.0201 16.7266C74.9201 16.9266 75.9201 17.0266 77.0201 17.1266C77.2201 17.1266 77.4201 17.3266 77.4201 17.5266C77.4201 17.7266 77.3201 17.8266 77.1201 17.8266C77.0201 17.9266 77.0201 17.9266 76.9201 17.9266ZM70.8201 16.6266C69.7201 16.1266 68.8201 15.6266 68.1201 14.9266C68.0201 14.7266 68.0201 14.5266 68.1201 14.4266C68.3201 14.3266 68.5201 14.3266 68.6201 14.4266C69.2201 15.0266 70.0201 15.5266 71.0201 15.9266C71.2201 16.0266 71.3201 16.2266 71.2201 16.4266C71.1201 16.5266 71.0201 16.6266 70.9201 16.6266C71.0201 16.7266 70.9201 16.7266 70.8201 16.6266ZM84.7201 13.4266C84.5201 13.4266 84.3201 13.2266 84.4201 13.0266C84.6201 12.0266 84.6201 11.0266 84.6201 10.0266C84.6201 9.8266 84.8201 9.62658 85.0201 9.62658C85.2201 9.62658 85.4201 9.8266 85.4201 10.0266C85.4201 11.0266 85.4201 12.1266 85.2201 13.1266C85.2201 13.3266 85.0201 13.4266 84.9201 13.4266C84.8201 13.5266 84.7201 13.5266 84.7201 13.4266ZM67.2201 12.3266C67.0201 12.3266 66.8201 12.2266 66.8201 11.9266C66.7201 11.0266 66.9201 9.92655 67.3201 8.72655C67.4201 8.52655 67.6201 8.4266 67.8201 8.5266C68.0201 8.6266 68.1201 8.8266 68.0201 9.0266C67.6201 10.0266 67.5201 11.0266 67.5201 11.8266C67.6201 12.1266 67.4201 12.3266 67.2201 12.3266ZM84.2201 7.12658C83.9201 6.12658 83.6201 5.22656 83.1201 4.42656C83.0201 4.22656 83.1201 4.02656 83.2201 3.92656C83.4201 3.82656 83.6201 3.9266 83.7201 4.0266C84.2201 4.9266 84.6201 5.92656 84.9201 6.92656C85.0201 7.12656 84.8201 7.32656 84.6201 7.42656C84.4201 7.42656 84.2201 7.32658 84.2201 7.12658ZM68.8201 6.5266C68.6201 6.4266 68.6201 6.2266 68.7201 6.0266C68.8201 5.8266 68.9201 5.7266 69.0201 5.5266C69.5201 4.7266 70.0201 4.02656 70.5201 3.42656C70.6201 3.22656 70.9201 3.22656 71.0201 3.42656C71.2201 3.52656 71.2201 3.82656 71.0201 3.92656C70.5201 4.52656 70.0201 5.22656 69.5201 5.92656C69.4201 6.02656 69.3201 6.22659 69.2201 6.32659C69.1201 6.42659 69.0201 6.5266 68.9201 6.5266C69.0201 6.6266 68.9201 6.6266 68.8201 6.5266ZM81.3201 2.12658C80.5201 1.42658 79.7201 1.02659 78.8201 0.826587C78.6201 0.726587 78.5201 0.526588 78.5201 0.326587C78.6201 0.126587 78.8201 0.0265997 79.0201 0.0265997C80.0201 0.3266 81.0201 0.8266 81.8201 1.5266C82.0201 1.6266 82.0201 1.9266 81.8201 2.0266C81.7201 2.1266 81.7201 2.12658 81.6201 2.12658C81.5201 2.22658 81.4201 2.12658 81.3201 2.12658ZM72.7201 1.82659C72.6201 1.62659 72.6201 1.42659 72.8201 1.32659C73.7201 0.626588 74.7201 0.2266 75.7201 0.0265997C75.9201 -0.0734003 76.1201 0.126587 76.2201 0.326587C76.2201 0.526588 76.1201 0.726587 75.9201 0.826587C75.0201 1.02659 74.1201 1.4266 73.3201 2.0266C73.3201 2.0266 73.2201 2.12658 73.1201 2.12658C73.0201 2.02658 72.8201 2.02659 72.7201 1.82659Z" fill="#FF8D00"/>
<path d="M50.62 39.3266C50.82 39.3266 50.92 39.1266 50.92 39.0266C50.92 38.8266 50.82 38.6266 50.52 38.6266C49.62 38.5266 49.02 38.4266 49.02 38.4266C48.82 38.3266 48.62 38.5266 48.52 38.7266C48.42 38.9266 48.62 39.1266 48.82 39.2266C48.82 39.2266 49.42 39.3266 50.42 39.4266C50.52 39.3266 50.52 39.3266 50.62 39.3266Z" fill="#FF8D00"/>
<path d="M113.82 23.3266L109.62 15.7266L109.52 15.6266L115.42 9.62659L108.12 13.9266L101.52 8.52661L121.92 4.3266L113.82 23.3266Z" fill="#FF8D00"/>
<path d="M109.62 15.7266L108.12 13.9266L120.52 5.42657L109.52 15.6266L109.62 15.7266Z" fill="#F47500"/>
<path d="M13.92 11.0266C12.62 11.5266 11.4199 10.3266 10.1199 10.2266C8.01991 10.2266 5.61996 11.3266 4.91996 13.4266C4.71996 14.0266 4.71996 14.9266 4.41996 15.4266C3.81996 16.2266 2.61996 16.7266 2.41996 17.8266C2.01996 20.3266 4.11996 21.0266 3.91996 23.5266C3.81996 25.2266 2.71994 25.7266 2.01994 27.2266C1.31994 28.7266 1.41991 30.2266 2.61991 31.3266C3.11991 31.8266 4.71996 32.5266 3.91996 33.3266C3.71996 33.5266 3.51993 33.6266 3.31993 33.8266C1.51993 34.9266 0.119937 36.8266 0.0199373 38.9266C-0.380063 44.3266 5.31993 46.4266 9.81993 46.3266C13.4199 46.3266 18.9199 44.9266 21.6199 42.5266C25.5199 38.9266 28.0199 33.2266 25.6199 27.6266C25.0199 26.2266 23.42 25.2266 23.42 23.7266C23.42 22.7266 23.7199 21.7266 23.8199 20.7266C23.9199 19.6266 23.7199 18.5266 23.3199 17.5266C23.0199 16.9266 22.7199 16.4266 22.2199 16.0266C21.3199 15.2266 20.2199 15.5266 19.2199 15.0266C18.5199 14.7266 18.0199 14.1266 17.7199 13.4266C17.4199 12.7266 17.5199 11.9266 17.0199 11.2266C15.9199 10.4266 14.72 10.6266 13.92 11.0266Z" fill="#192344"/>
<path d="M8.1198 56.6266C11.4198 54.8266 32.8198 52.0266 42.0198 52.4266C45.9198 52.6266 46.4198 57.4266 43.2198 59.2266C34.6198 64.2266 23.0198 66.2266 14.9198 66.8266C7.71985 67.3266 4.6198 58.5266 8.1198 56.6266Z" fill="#00C675"/>
<path d="M44.3199 48.8266C44.5199 48.7266 44.7199 48.5266 44.8199 48.8266C44.9199 49.0266 44.1199 49.6266 43.9199 49.6266C43.4199 49.5266 43.4199 49.2266 42.9199 49.2266C43.4199 49.1266 43.9199 49.0266 44.3199 48.8266Z" fill="#FFA493"/>
<path d="M44.2198 49.3266C44.8198 49.4266 46.2198 49.8266 46.3198 49.9266C46.6198 50.0266 47.3198 50.2266 47.5198 50.3266C47.6198 50.4266 47.8198 50.8266 47.8198 50.9266C47.8198 51.1266 47.5198 51.2266 47.5198 51.2266C47.6198 51.5266 46.8198 51.5266 46.8198 51.6266C46.9198 51.9266 46.6198 52.2266 45.5198 51.8266C45.4198 51.8266 42.6198 51.4266 41.8198 51.3266C41.9198 50.7266 42.6198 49.1266 42.6198 49.1266C43.1198 49.2266 43.7198 49.2266 44.2198 49.3266Z" fill="#FFA493"/>
<path d="M27.8197 43.1266C28.0197 43.1266 28.2197 43.1266 28.3197 43.2266C30.9197 44.0266 39.9197 48.7266 42.8197 49.2266C42.5197 50.1266 42.3197 50.8266 42.2197 51.4266C37.6197 50.6266 26.2197 47.3266 26.0197 45.5266C25.8197 43.7266 27.0197 43.2266 27.8197 43.1266Z" fill="#FFA493"/>
<path d="M21.9199 29.5266C22.1199 29.5266 22.3199 29.6266 22.4199 29.7266C23.2199 30.7266 24.3199 33.1266 25.5199 35.6266C26.7199 38.1266 27.9199 40.7266 29.0199 42.3266C29.2199 42.6266 29.3199 42.8266 29.5199 43.1266C30.5199 43.6266 31.9199 44.2266 33.4199 44.9266C36.6199 46.4266 40.6199 48.3266 42.2199 48.6266L41.4199 51.8266C37.4199 51.1266 28.3199 48.4266 26.0199 46.4266C23.5199 44.4266 15.2198 35.5266 16.8198 33.2266C17.1198 32.3266 21.0199 29.5266 21.9199 29.5266Z" fill="#3011CC"/>
<path d="M68.52 69.1266C68.02 68.8266 67.52 68.5266 67.52 68.5266L68.02 66.2266C68.02 66.2266 68.92 66.3266 69.32 66.3266C70.22 66.2266 72.12 62.9266 73.02 63.4266C73.42 63.6266 73.12 64.9266 72.72 65.7266C72.32 66.5266 71.52 67.9266 71.32 68.4266C71.02 69.0266 70.62 70.1266 70.32 70.2266C69.42 70.5266 69.02 69.4266 68.52 69.1266Z" fill="#0B1028"/>
<path d="M67.92 66.2266C67.92 66.2266 68.62 66.4266 69.32 66.4266C69.32 66.4266 69.62 66.3266 69.72 66.8266C69.72 67.2266 68.52 69.1266 68.52 69.1266C68.02 68.8266 67.02 68.3266 67.02 68.3266L67.92 66.2266Z" fill="#FF9873"/>
<path d="M8.61996 53.4266C12.32 52.9266 33.32 58.1266 41.72 61.8266C45.32 63.4266 43.82 67.2266 40.22 67.8266C30.42 69.3266 19.12 69.7266 11.02 68.7266C3.01999 67.8266 4.61996 54.0266 8.61996 53.4266Z" fill="#00E18E"/>
<path d="M40.72 61.0266C56.62 63.9266 68.42 66.0266 68.42 66.0266C68.82 66.8266 68.62 68.2265 68.22 69.2265C68.22 69.2265 51.92 69.5266 37.72 69.5266C28.42 69.5266 34.22 59.8266 40.72 61.0266Z" fill="#00E18E"/>
<path d="M25.7199 52.0266L27.6199 56.7266C27.6199 56.7266 27.1199 57.5266 25.2199 57.7266L24.1199 56.2266L24.2199 58.3266C15.0199 63.1266 5.61987 61.1266 5.61987 61.1266C4.61987 58.0266 4.41992 52.9266 4.41992 52.9266L25.7199 52.0266Z" fill="white"/>
<path d="M12.3198 21.6266C12.6198 21.8266 14.6198 22.9266 15.6198 23.0266C15.6198 23.2266 15.8198 26.5266 16.6198 27.0266C16.5198 28.3266 13.0198 28.7266 11.8198 26.7266C12.2198 26.0266 12.3198 22.8266 12.3198 21.6266Z" fill="#FF9873"/>
<path d="M8.42005 27.9266C9.32005 27.6266 11.82 26.6266 11.82 26.6266C11.82 26.6266 13.62 28.0266 15.22 27.7266C16.02 27.5266 16.62 26.9266 16.62 26.9266C16.62 26.9266 19.8201 27.5266 20.4201 27.7266C22.7201 28.7266 23.42 30.8266 23.32 32.6266C23.02 38.8266 27.72 52.3266 26.02 53.4266C23.72 54.8266 9.42005 60.6266 4.42005 57.4266C4.42005 57.4266 3.52003 39.8266 4.52003 33.7266C4.82003 31.4266 5.82005 28.8266 8.42005 27.9266Z" fill="#4619D9"/>
<path d="M11.72 21.1266C11.32 19.5266 11.7199 17.5266 13.3199 16.8266C14.8199 16.2266 16.2199 16.4265 17.0199 17.7265C17.3199 18.2265 18.6199 23.5266 16.5199 24.4266C15.4199 24.8266 12.52 23.8266 12.22 22.6266C12.12 22.7266 11.92 21.6266 11.72 21.1266Z" fill="#FF9873"/>
<path d="M67.3199 71.4266C66.9199 71.0266 66.6199 70.5266 66.6199 70.5266L67.9199 68.5266C67.9199 68.5266 68.7199 68.9266 69.1199 69.1266C70.0199 69.4266 72.9199 66.9266 73.6199 67.6266C73.9199 68.0266 73.2199 69.1266 72.5199 69.7266C71.9199 70.3266 70.6199 71.4266 70.2199 71.7266C69.7199 72.1266 69.0199 73.1266 68.6199 73.0266C67.7199 73.0266 67.7199 71.8266 67.3199 71.4266Z" fill="#0B1028"/>
<path d="M67.8199 68.4266C67.8199 68.4266 68.4199 68.9266 69.0199 69.1266C69.0199 69.1266 69.3199 69.1266 69.2199 69.6266C69.1199 70.0266 67.2199 71.4266 67.2199 71.4266C66.8199 71.0266 66.1199 70.2266 66.1199 70.2266L67.8199 68.4266Z" fill="#FF9873"/>
<path d="M44.4201 53.2266C58.0201 61.9266 68.22 68.3266 68.22 68.3266C68.22 69.2266 67.4201 70.5266 66.4201 71.1266C66.4201 71.1266 55.1201 66.9266 41.9201 61.5266C33.3201 58.0266 38.9201 49.7266 44.4201 53.2266Z" fill="#00C675"/>
<path d="M16.3198 53.6266C16.3198 53.7266 16.3198 53.7266 16.3198 53.6266C16.3198 54.0266 16.6198 54.3266 17.0198 54.3266H33.9199C34.3199 54.3266 34.6198 54.0266 34.6198 53.6266H16.3198Z" fill="#8358FF"/>
<path d="M36.5198 38.8266L33.0198 53.5266C32.9198 53.7266 33.0198 54.4266 33.9198 54.4266L48.2198 54.2266V37.8266H37.8197C37.2197 37.8266 36.6198 38.2266 36.5198 38.8266Z" fill="#8358FF"/>
<path d="M55.9198 37.8266H37.6198C37.4198 37.8266 37.2198 37.9266 37.2198 38.1266L33.4198 53.8266C33.3198 54.1266 33.5198 54.3266 33.8198 54.3266H50.8198C51.7198 54.3266 52.6198 53.7266 52.8198 52.8266L56.2198 38.3266C56.4198 38.1266 56.2198 37.8266 55.9198 37.8266Z" fill="#9872FF"/>
<path opacity="0.2" d="M39.2198 53.5266H34.5198L35.5198 49.2266L39.2198 53.5266Z" fill="white"/>
<path opacity="0.2" d="M36.9199 42.6266L37.8199 38.4266H39.1199C43.5199 43.4266 47.8199 48.4266 52.2199 53.5266H46.3199L36.9199 42.6266Z" fill="white"/>
<path d="M8.02001 33.7266C8.22001 33.3266 8.32 33.0266 8.32 32.6266C10.02 35.4266 12.62 37.4266 14.82 40.1266C17.82 43.7266 21.32 49.2266 25.52 51.4266C21.42 51.4266 17.32 50.7266 15.22 49.4266C12.22 47.4266 4.72001 38.4266 8.02001 33.7266Z" fill="#3011CC"/>
<path d="M34.2199 50.3266C34.3199 50.5266 33.5199 51.0266 33.3199 51.0266C32.8199 50.9266 32.9199 50.6266 32.4199 50.5266C32.8199 50.5266 33.3199 50.3265 33.7199 50.2265C33.9199 50.2265 34.1199 50.0266 34.2199 50.3266Z" fill="#FF9873"/>
<path d="M31.9201 50.6266C32.4201 50.6266 32.9201 50.7266 33.4201 50.8266C34.0201 50.9266 35.4201 51.4266 35.4201 51.4266C35.7201 51.5266 36.4201 51.7266 36.5201 51.8266C36.6201 51.9266 36.8201 52.3266 36.8201 52.4266C36.8201 52.6266 36.5201 52.7266 36.5201 52.7266C36.6201 53.0266 35.8201 53.0266 35.8201 53.1266C35.9201 53.4266 35.6201 53.6266 34.5201 53.3266C34.4201 53.3266 31.7201 52.9266 30.8201 52.7266C31.2201 52.1266 31.9201 50.6266 31.9201 50.6266Z" fill="#FF9873"/>
<path d="M7.12008 34.5266C7.62008 33.8266 11.8201 30.8266 12.1201 31.2266C13.6201 33.2266 16.5201 40.6266 18.6201 43.9266C21.1201 47.9266 17.4201 48.3266 16.3201 47.3266C13.2201 44.7266 6.02008 36.2266 7.12008 34.5266Z" fill="#FF9873"/>
<path d="M17.5199 44.3266C17.7199 44.3266 17.9199 44.3266 18.0199 44.4266C20.5199 45.3266 29.3199 50.1266 32.1199 50.6266C31.8199 51.4266 31.5199 52.2266 31.5199 52.8266C27.0199 51.9266 15.9199 48.4266 15.7199 46.5266C15.5199 44.8266 16.7199 44.3266 17.5199 44.3266Z" fill="#FF9873"/>
<path d="M6.52003 34.1266C7.02003 33.3266 10.92 30.6266 11.82 30.7266C12.02 30.7266 12.22 30.8266 12.32 31.0266C13.02 32.0266 17.5201 41.9266 18.4201 43.5266C18.6201 43.8266 18.72 44.0266 18.82 44.3266C19.82 44.8266 21.22 45.5266 22.62 46.2266C25.72 47.8266 29.62 49.7266 31.12 50.0266L30.22 53.2266C26.32 52.4266 17.42 49.5266 15.12 47.5266C12.82 45.3266 4.92003 36.4266 6.52003 34.1266Z" fill="#4619D9"/>
</svg>
